<?xml version="1.0" encoding="UTF-8" standalone="no"?>
<!-- Created with Inkscape (http://www.inkscape.org/) -->

<svg
   width="848"
   height="208"
   viewBox="0 0 224.36667 55.033333"
   version="1.1"
   id="svg5"
   inkscape:version="1.2.2 (b0a8486541, 2022-12-01)"
   sodipodi:docname="banner.svg"
   xml:space="preserve"
   inkscape:export-filename="banner.png"
   inkscape:export-xdpi="96"
   inkscape:export-ydpi="96"
   xmlns:inkscape="http://www.inkscape.org/namespaces/inkscape"
   xmlns:sodipodi="http://sodipodi.sourceforge.net/DTD/sodipodi-0.dtd"
   xmlns="http://www.w3.org/2000/svg"
   xmlns:svg="http://www.w3.org/2000/svg"><sodipodi:namedview
     id="namedview7"
     pagecolor="#ffffff"
     bordercolor="#ffffff"
     borderopacity="1"
     inkscape:showpageshadow="0"
     inkscape:pageopacity="1"
     inkscape:pagecheckerboard="1"
     inkscape:deskcolor="#505050"
     inkscape:document-units="px"
     showgrid="false"
     inkscape:zoom="1.1893044"
     inkscape:cx="441.4345"
     inkscape:cy="115.19338"
     inkscape:window-width="1920"
     inkscape:window-height="1011"
     inkscape:window-x="0"
     inkscape:window-y="32"
     inkscape:window-maximized="1"
     inkscape:current-layer="layer1" /><defs
     id="defs2" /><g
     inkscape:label="Layer 1"
     inkscape:groupmode="layer"
     id="layer1"><g
       id="g886"
       transform="translate(0,3.7041665)"><g
         style="fill:#000000"
         id="g211"
         transform="matrix(0.1224969,-0.04466018,0.04466018,0.1224969,-6.8432928,-32.04557)"><g
           id="g186">
	<g
   id="g184">
		<path
   d="m 104.653,205.399 c -38.115,0 -69.119,31.004 -69.119,69.119 0,38.115 31.004,69.119 69.119,69.119 38.109,0 69.113,-31.004 69.113,-69.119 0,-38.115 -31.004,-69.119 -69.113,-69.119 z m 0,110.295 c -22.699,0 -41.169,-18.471 -41.169,-41.176 0,-22.705 18.47,-41.175 41.169,-41.175 22.699,0 41.169,18.47 41.169,41.175 0,22.705 -18.464,41.176 -41.169,41.176 z"
   id="path152" />
		<path
   d="m 104.653,239.469 c -19.327,0 -35.049,15.722 -35.049,35.055 0,19.333 15.722,35.055 35.049,35.055 19.327,0 35.049,-15.723 35.049,-35.055 0,-19.333 -15.722,-35.055 -35.049,-35.055 z"
   id="path154" />
		<path
   d="m 202.065,370.37 c 0,-1.493 -1.218,-2.711 -2.711,-2.711 H 178.57 c -1.5,0 -2.711,1.218 -2.711,2.711 v 27.889 H 147.97 c -1.499,0 -2.711,1.218 -2.711,2.718 v 20.783 c 0,1.493 1.218,2.711 2.711,2.711 h 27.889 v 27.89 c 0,1.493 1.218,2.711 2.711,2.711 h 20.784 c 1.5,0 2.711,-1.218 2.711,-2.711 v -27.883 h 27.889 c 1.499,0 2.717,-1.219 2.717,-2.712 v -20.789 c 0,-1.5 -1.218,-2.718 -2.717,-2.718 h -27.889 z"
   id="path156" />
		<path
   d="m 534.253,184.444 c 0,0 -9.241,-47.925 -77.376,-34.07 0,0 -39.235,-21.389 -143.03,-24.945 5.086,-25.888 37.21,-20.086 54.945,-32.706 14.982,-10.655 22.571,-29.37 20.943,-47.369 -1.408,-15.588 -25.9,-15.729 -24.48,0 1.071,11.848 -2.595,21.799 -12.564,28.893 -9.994,7.111 -24.406,4.278 -35.221,10.153 -16.261,8.831 -25.232,22.889 -28.103,40.625 C 172.524,126.623 128.9,150.374 128.9,150.374 60.772,136.519 51.531,184.444 51.531,184.444 -16.027,229.481 3.606,312.633 3.606,312.633 -3.322,396.937 -5.923,552.17 50.375,552.17 c 56.298,0 56.01,-145.424 56.01,-145.424 0,0 9.817,16.169 17.32,37.534 7.503,21.365 63.52,79.683 124.144,15.588 60.631,-64.095 -23.097,-128.189 -23.097,-128.189 v -10.19 c 20.208,-5.575 68.134,-6.554 68.134,-6.554 0,0 47.926,0.979 68.134,6.554 v 10.19 c 0,0 -83.728,64.095 -23.097,128.189 60.631,64.094 116.642,5.777 124.145,-15.588 7.503,-21.364 17.325,-37.534 17.325,-37.534 0,0 -0.287,145.424 56.011,145.424 56.298,0 53.703,-155.24 46.769,-239.543 0.006,0 19.639,-83.146 -47.92,-128.183 z M 362.66,159.456 c 1.769,-0.037 3.537,-0.049 5.3,0.006 1.469,0.043 2.467,1.04 2.497,2.521 0.049,2.423 0.055,4.847 0,7.271 -0.037,1.634 -1.438,2.913 -3.201,2.98 -1.346,0.049 -2.698,0.049 -4.045,0 -1.946,-0.067 -3.237,-1.444 -3.25,-3.391 -0.006,-1.077 0,-2.148 0,-3.225 0,-1.096 0.056,-2.191 -0.012,-3.281 -0.092,-1.602 1.432,-2.85 2.711,-2.881 z m -23.379,0 c 2.356,0 4.67,-0.024 6.983,0.012 0.777,0.012 1.487,0.324 2.093,0.845 0.521,0.453 0.796,1.01 0.796,1.72 -0.013,2.423 0.006,4.847 -0.019,7.271 -0.006,0.336 -0.135,0.734 -0.337,0.998 -0.795,1.034 -1.737,1.713 -3.182,1.646 -2.087,-0.098 -4.187,-0.025 -6.322,-0.025 -0.012,-4.156 -0.012,-8.281 -0.012,-12.467 z m -21.377,-0.006 c 0.937,0 1.842,-0.019 2.748,0.018 0.153,0.006 0.337,0.232 0.435,0.398 1.199,2.099 2.393,4.21 3.586,6.316 0.104,0.189 0.221,0.373 0.398,0.686 0,-2.534 0,-4.939 0,-7.381 0.789,0 1.523,0 2.288,0 0,4.125 0,8.25 0,12.436 -0.703,0 -1.389,0.024 -2.074,-0.018 -0.153,-0.012 -0.33,-0.245 -0.422,-0.417 -1.451,-2.668 -2.889,-5.349 -4.333,-8.023 -0.086,-0.153 -0.178,-0.3 -0.35,-0.6 0,3.097 0,6.035 0,9.015 -0.783,0 -1.518,0 -2.276,0 0,-4.119 0,-8.232 0,-12.43 z m -21.407,2.381 c 0.012,-1.634 0.808,-2.387 2.447,-2.387 2.167,0 4.34,0 6.506,0 0.178,0 0.355,0 0.563,0 0,0.667 0,1.279 0,1.971 -0.208,0 -0.398,0 -0.594,0 -1.641,0 -3.28,0 -4.921,0 -1.224,0 -1.689,0.459 -1.689,1.659 0,0.416 0,0.826 0,1.285 2.424,0 4.786,0 7.191,0 0,0.667 0,1.291 0,1.977 -2.381,0 -4.762,0 -7.179,0 0,0.912 -0.03,1.769 0.013,2.62 0.024,0.52 0.673,0.991 1.254,0.997 1.769,0 3.538,0 5.3,0 0.196,0 0.392,0 0.618,0 0,0.661 0,1.273 0,1.946 -0.171,0.012 -0.343,0.031 -0.52,0.031 -2.167,0 -4.34,0.006 -6.506,0 -1.506,0 -2.479,-0.937 -2.491,-2.436 -0.01,-2.559 -0.01,-5.111 0.008,-7.663 z m -20.38,-2.344 c 3.476,0 6.94,0 10.459,0 0,0.648 0,1.261 0,1.922 -1.292,0 -2.564,0 -3.874,0 0,3.506 0,6.958 0,10.459 -0.894,0 -1.738,0 -2.644,0 0,-3.452 0,-6.916 0,-10.447 -1.347,0 -2.625,0 -3.936,0 -0.005,-0.673 -0.005,-1.286 -0.005,-1.934 z m -0.055,17.075 c 5.704,0 11.365,0 17.062,0 0,1.175 0,2.332 0,3.55 -4.113,0 -8.244,0 -12.405,0 0,0.906 0,1.744 0,2.638 2.375,0 4.737,0 7.142,0 0,1.236 0,2.423 0,3.678 -2.375,0 -4.749,0 -7.154,0 0,0.985 0,1.903 0,2.876 4.149,0 8.274,0 12.43,0 0,1.322 0,2.595 0,3.898 -5.679,0 -11.358,0 -17.075,0 0,-5.514 0,-11.047 0,-16.64 z M 255.444,159.45 c 1.016,0 2.025,-0.012 3.042,0.018 0.135,0.006 0.3,0.227 0.379,0.379 1.126,2.124 2.234,4.253 3.354,6.377 0.092,0.171 0.189,0.342 0.379,0.501 0,-2.405 0,-4.804 0,-7.24 0.894,0 1.726,0 2.601,0 0,4.119 0,8.237 0,12.43 -0.802,0 -1.598,0.024 -2.393,-0.019 -0.147,-0.006 -0.318,-0.257 -0.41,-0.435 -1.432,-2.638 -2.852,-5.281 -4.278,-7.925 -0.098,-0.177 -0.196,-0.349 -0.386,-0.514 0,2.944 0,5.888 0,8.88 -0.826,0 -1.536,0 -2.289,0 10e-4,-4.147 10e-4,-8.266 10e-4,-12.452 z m -16.132,0.012 c 0.856,0 1.67,0 2.54,0 0,4.137 0,8.256 0,12.417 -0.826,0 -1.658,0 -2.54,0 0,-4.118 0,-8.237 0,-12.417 z m -23.336,-0.018 c 1.016,0 2.013,-0.019 3.011,0.019 0.153,0.006 0.343,0.227 0.435,0.397 1.138,2.136 2.258,4.284 3.384,6.426 0.08,0.153 0.171,0.306 0.349,0.435 0,-2.405 0,-4.811 0,-7.246 0.887,0 1.72,0 2.588,0 0,4.125 0,8.25 0,12.436 -0.795,0 -1.542,0.025 -2.289,-0.018 -0.178,-0.012 -0.398,-0.214 -0.496,-0.392 -1.463,-2.687 -2.907,-5.38 -4.357,-8.072 -0.086,-0.159 -0.171,-0.312 -0.361,-0.459 0,1.475 0,2.956 0,4.431 0,1.475 0,2.95 0,4.468 -0.759,0 -1.493,0 -2.264,0 0,-4.12 0,-8.245 0,-12.425 z M 104.653,349.757 c -41.487,0 -75.239,-33.752 -75.239,-75.239 0,-41.487 33.752,-75.239 75.239,-75.239 41.488,0 75.233,33.752 75.233,75.239 0,41.487 -33.745,75.239 -75.233,75.239 z m 125.301,42.381 c 4.872,0 8.837,3.96 8.837,8.838 v 20.783 c 0,4.872 -3.965,8.831 -8.837,8.831 h -21.769 v 21.77 c 0,4.871 -3.959,8.831 -8.831,8.831 H 178.57 c -4.872,0 -8.831,-3.96 -8.831,-8.831 V 430.596 H 147.97 c -4.871,0 -8.831,-3.959 -8.831,-8.831 v -20.789 c 0,-4.878 3.96,-8.838 8.831,-8.838 h 21.769 V 370.37 c 0,-4.871 3.959,-8.831 8.831,-8.831 h 20.784 c 4.872,0 8.831,3.96 8.831,8.831 v 21.769 h 21.769 z m -2.252,-198.624 c -3.623,-0.043 -7.252,-0.019 -10.881,-0.019 -1.695,0 -3.715,-1.383 -4.302,-2.962 -0.098,-0.263 -0.128,-0.569 -0.128,-0.857 -0.006,-3.152 -0.012,-6.304 0,-9.456 0,-0.483 0.061,-0.991 0.196,-1.45 0.355,-1.206 1.377,-2.014 2.631,-2.014 5.447,-0.019 10.9,-0.006 16.347,-0.006 0.049,0 0.104,0.024 0.19,0.042 0,1.151 0,2.308 0,3.513 -4.89,0 -9.768,0 -14.688,0 0,3.078 0,6.059 0,9.07 3.568,0 7.105,0 10.679,0 0,-0.82 0,-1.616 0,-2.485 -2.032,0 -4.063,0 -6.12,0 0,-1.304 0,-2.534 0,-3.788 3.464,0 6.897,0 10.404,0 0.006,0.189 0.024,0.379 0.024,0.569 0,1.971 -0.012,3.935 0.006,5.906 0.006,0.618 -0.141,1.163 -0.526,1.622 -0.392,0.478 -0.808,0.937 -1.261,1.358 -0.711,0.669 -1.549,0.969 -2.571,0.957 z m 42.393,-8.568 c -0.098,0.153 -0.202,0.3 -0.294,0.459 -1.438,2.473 -2.882,4.939 -4.302,7.417 -0.19,0.331 -0.398,0.447 -0.771,0.435 -0.856,-0.024 -1.713,-0.031 -2.57,0 -0.397,0.012 -0.612,-0.11 -0.814,-0.459 -1.377,-2.423 -2.778,-4.829 -4.167,-7.24 -0.11,-0.19 -0.22,-0.374 -0.441,-0.557 0,2.724 0,5.453 0,8.25 -0.288,0 -0.477,0 -0.667,0 -2.025,0 -4.045,-0.012 -6.071,0.012 -0.417,0.006 -0.643,-0.116 -0.857,-0.483 -2.007,-3.464 -4.039,-6.922 -6.065,-10.374 -0.098,-0.166 -0.208,-0.331 -0.355,-0.569 -1.481,2.497 -2.925,4.933 -4.418,7.454 1.665,0 3.25,0 4.859,0 0,1.34 0,2.607 0,3.923 -3.997,0 -7.987,0 -12.038,0 0.085,-0.165 0.146,-0.312 0.226,-0.447 3.091,-5.238 6.188,-10.471 9.272,-15.716 0.22,-0.374 0.447,-0.539 0.894,-0.521 0.894,0.037 1.787,0.037 2.681,0 0.459,-0.018 0.716,0.129 0.948,0.526 2.246,3.831 4.523,7.65 6.787,11.469 0.11,0.184 0.227,0.373 0.429,0.709 0,-4.314 0,-8.464 0,-12.692 0.899,0 1.75,0.098 2.558,-0.025 1.353,-0.202 2.056,0.355 2.699,1.53 1.738,3.158 3.635,6.224 5.471,9.333 0.11,0.184 0.227,0.367 0.374,0.593 0.955,-1.622 1.879,-3.182 2.803,-4.749 1.23,-2.087 2.467,-4.167 3.685,-6.261 0.177,-0.306 0.361,-0.435 0.722,-0.428 1.236,0.024 2.472,0.012 3.746,0.012 0,5.582 0,11.108 0,16.695 -1.408,0 -2.772,0 -4.192,0 0,-2.748 0,-5.496 0,-8.237 -0.046,-0.028 -0.089,-0.047 -0.132,-0.059 z m 22.797,106.721 c -10.918,0 -19.804,-8.88 -19.804,-19.798 0,-10.918 8.886,-19.804 19.804,-19.804 10.924,0 19.804,8.886 19.804,19.804 0,10.918 -8.88,19.798 -19.804,19.798 z m 7.938,-111.17 c 0,2.925 0,5.845 0,8.794 3.151,0 6.291,0 9.474,0 0,-1.065 0,-2.099 0,-3.176 1.432,0 2.827,0 4.247,0 0.012,0.086 0.037,0.171 0.037,0.257 0,1.566 0.018,3.133 -0.007,4.7 -0.019,1.444 -0.789,2.179 -2.215,2.172 -4.211,0 -8.422,0 -12.632,0 -1.646,0 -3.018,-1.236 -3.201,-2.882 -0.03,-0.251 -0.036,-0.508 -0.036,-0.765 0,-3.666 0,-7.326 0,-10.992 0,-1.536 0.526,-2.081 2.056,-2.081 4.468,-0.006 8.93,-0.006 13.396,0 1.738,0.006 2.663,0.973 2.639,2.699 -0.013,1.096 -0.013,2.185 -0.019,3.28 0,0.178 0,0.355 0,0.563 -1.549,0 -3.036,0 -4.59,0 0,-0.851 0,-1.695 0,-2.576 -3.072,0.007 -6.089,0.007 -9.149,0.007 z m 34.131,-3.305 c 0,4.266 0,8.531 0,12.797 0,1.964 -0.991,3.054 -2.98,3.256 -0.38,0.037 -0.765,0.061 -1.145,0.061 -3.733,0.006 -7.473,0.019 -11.206,-0.006 -0.557,-0.006 -1.132,-0.11 -1.658,-0.288 -1.071,-0.367 -1.701,-1.188 -1.714,-2.301 -0.036,-4.7 -0.012,-9.4 -0.012,-14.162 1.542,0 3.029,0 4.577,0 0,4.253 0,8.488 0,12.76 3.188,0 6.311,0 9.499,0 0,-4.223 0,-8.458 0,-12.742 1.561,0 3.06,0 4.639,0 0,0.203 0,0.411 0,0.625 z m 18.519,7.632 c 0.765,0.306 1.218,0.948 1.218,1.769 0.006,1.328 0,2.662 0,3.99 0,1.089 -0.49,1.916 -1.524,2.215 -0.967,0.282 -1.989,0.483 -2.992,0.496 -4.37,0.055 -8.746,0.024 -13.115,0.024 -0.141,0 -0.282,-0.024 -0.44,-0.042 0,-5.582 0,-11.126 0,-16.745 0.22,0 0.416,0 0.605,0 4.994,0 9.981,0 14.976,0 1.695,0 2.484,0.777 2.491,2.467 0.006,1.31 0,2.625 0,3.935 0,0.924 -0.325,1.303 -1.255,1.457 -0.129,0.024 -0.257,0.061 -0.38,0.085 -0.006,0.049 -0.018,0.104 -0.024,0.153 0.147,0.061 0.293,0.134 0.44,0.196 z m 2.901,8.451 c 0,-5.576 0,-11.139 0,-16.75 5.581,0 11.114,0 16.689,0 0,1.187 0,2.356 0,3.592 -4.125,0 -8.256,0 -12.424,0 0,0.9 0,1.744 0,2.632 2.381,0 4.743,0 7.148,0 0,1.224 0,2.393 0,3.641 -2.362,0 -4.737,0 -7.148,0 0,0.992 0,1.916 0,2.913 4.235,0 8.488,0 12.767,0 0,1.365 0,2.65 0,3.972 -5.674,0 -11.328,0 -17.032,0 z m 89.315,224.616 -18.66,33.336 c -0.41,0.734 -1.102,1.267 -1.915,1.469 l -36.176,9.205 c -0.251,0.066 -0.502,0.098 -0.753,0.098 -0.538,0 -1.071,-0.141 -1.548,-0.416 L 354.44,442.709 c -0.722,-0.423 -1.242,-1.133 -1.432,-1.946 l -8.69,-37.197 c -0.189,-0.809 -0.043,-1.659 0.404,-2.351 l 19.283,-29.951 c 0.423,-0.655 1.084,-1.132 1.843,-1.315 l 34.994,-8.636 c 0.771,-0.184 1.579,-0.079 2.258,0.318 l 31.23,17.999 c 0.68,0.392 1.182,1.028 1.401,1.774 l 10.227,34.113 c 0.233,0.796 0.142,1.652 -0.262,2.374 z M 556.009,303.907 c -1.848,0.502 -3.751,0.753 -5.648,0.753 -2.754,0 -5.392,-0.576 -7.852,-1.537 -10.074,25.576 -34.964,43.753 -64.07,43.753 -17.583,0 -33.599,-6.678 -45.784,-17.559 -5.263,7.454 -13.904,12.362 -23.702,12.362 -16.017,0 -29.046,-13.029 -29.046,-29.039 0,-16.017 13.029,-29.046 29.046,-29.046 0.306,0 0.587,0.08 0.887,0.092 -0.153,-1.879 -0.287,-3.77 -0.287,-5.691 0,-16.481 5.832,-31.622 15.526,-43.489 -2.461,-2.564 -4.321,-5.741 -5.294,-9.339 -3.109,-11.53 3.745,-23.439 15.275,-26.555 l 1.107,-0.336 c 18.74,-5.649 18.74,-5.649 35.937,-9.682 l 0.796,-0.184 c 1.744,-0.41 3.525,-0.618 5.3,-0.618 10.086,0 18.593,6.396 21.163,15.918 0.79,2.931 0.918,5.924 0.483,8.843 10.074,3.305 19.119,8.862 26.555,16.089 2.326,-1.94 5.056,-3.452 8.158,-4.29 1.849,-0.502 3.752,-0.752 5.648,-0.752 9.762,0 18.36,6.591 20.906,16.028 l 0.281,0.931 c 5.691,18.855 5.691,18.855 9.707,35.973 l 0.22,0.93 c 2.748,11.775 -3.971,23.39 -15.312,26.445 z"
   id="path158" />
		<circle
   cx="292.892"
   cy="271.862"
   r="13.684"
   id="circle160" />
		<path
   d="m 346.81,168.6 c 0.006,-1.916 0,-3.825 0,-5.741 0,-0.686 -0.551,-1.396 -1.236,-1.42 -1.322,-0.049 -2.645,-0.012 -3.997,-0.012 0,2.962 0,5.869 0,8.855 1.219,0 2.381,0 3.544,0 0.936,-0.006 1.682,-0.746 1.689,-1.682 z"
   id="path162" />
		<path
   d="m 349.582,182.761 c 0.795,0 0.844,-0.055 0.844,-0.826 0,-0.472 -0.012,-0.949 0,-1.42 0.013,-0.514 -0.171,-0.729 -0.74,-0.722 -2.638,0.031 -5.275,0.012 -7.913,0.012 -0.159,0 -0.318,0.012 -0.514,0.024 0,0.979 0,1.934 0,2.938 0.832,0 1.634,0 2.43,0 1.957,-0.006 3.928,0 5.893,-0.006 z"
   id="path164" />
		<path
   d="m 529.454,288.637 c -0.073,-0.275 -0.109,-0.563 -0.104,-0.857 0,-0.116 0.189,-11.512 -1.8,-18.88 -1.272,-4.73 -3.923,-9.522 -5.856,-13.023 -1.261,-2.277 -2.093,-3.789 -2.417,-4.976 -1.702,-6.304 -0.343,-12.675 3.047,-17.706 -6.793,-6.658 -15.085,-11.769 -24.314,-14.81 -0.27,0.582 -0.471,1.187 -0.795,1.75 -2.883,5.019 -7.547,8.611 -13.134,10.11 -0.275,0.08 -0.551,0.11 -0.851,0.11 l -0.918,-0.006 c -2.645,0 -11.744,0.129 -17.963,1.799 -4.736,1.279 -9.528,3.929 -13.023,5.863 -2.282,1.261 -3.794,2.093 -4.987,2.417 -1.849,0.502 -3.752,0.753 -5.655,0.753 -3.892,0 -7.57,-1.083 -10.783,-2.938 -8.886,10.833 -14.229,24.669 -14.229,39.743 0,2.222 0.122,4.413 0.349,6.573 12.589,3.176 21.977,14.511 21.977,28.072 0,3.979 -0.808,7.767 -2.265,11.225 11.212,10.446 26.206,16.897 42.706,16.897 26.817,0 49.694,-16.94 58.666,-40.655 -3.636,-2.82 -6.39,-6.785 -7.651,-11.461 z m -50.055,31.096 c -22.063,0 -40.02,-17.95 -40.02,-40.013 0,-22.063 17.95,-40.019 40.02,-40.019 22.068,0 40.019,17.956 40.019,40.019 0,22.063 -17.95,40.013 -40.019,40.013 z"
   id="path166" />
		<path
   d="m 362.604,168.85 c 0.019,0.777 0.35,1.09 1.114,1.096 0.894,0.006 1.781,0.012 2.675,0 0.881,-0.012 1.45,-0.594 1.456,-1.487 0.006,-1.836 0.006,-3.672 0,-5.514 0,-0.802 -0.729,-1.53 -1.523,-1.536 -0.766,-0.006 -1.53,-0.006 -2.295,0 -0.869,0.012 -1.427,0.569 -1.433,1.438 -0.006,0.979 0,1.964 0,2.944 h 0.006 c -0.005,1.021 -0.024,2.043 0,3.059 z"
   id="path168" />
		<path
   d="m 479.399,245.822 c -18.69,0 -33.899,15.202 -33.899,33.898 0,18.69 15.202,33.893 33.899,33.893 18.696,0 33.898,-15.202 33.898,-33.893 10e-4,-18.697 -15.207,-33.898 -33.898,-33.898 z"
   id="path170" />
		<path
   d="m 401.105,367.548 -32.613,8.048 -17.926,27.84 8.098,34.651 29.987,17.577 33.685,-8.568 17.387,-31.059 -9.51,-31.708 z m -5.948,74.775 c -16.94,0 -30.716,-13.776 -30.716,-30.717 0,-16.939 13.775,-30.716 30.716,-30.716 16.941,0 30.716,13.776 30.716,30.716 0,16.94 -13.775,30.717 -30.716,30.717 z"
   id="path172" />
		<path
   d="m 349.691,186.366 c -2.638,0.031 -5.275,0.012 -7.913,0.012 -0.171,0 -0.349,0.019 -0.526,0.031 0,0.998 0,1.934 0,2.925 0.232,0 0.429,0 0.625,0 2.037,0 4.075,0 6.113,0 0.6,0 1.199,-0.006 1.8,-0.006 0.446,0.006 0.667,-0.177 0.643,-0.655 -0.031,-0.526 -0.019,-1.052 -0.007,-1.585 0.007,-0.496 -0.159,-0.728 -0.735,-0.722 z"
   id="path174" />
		<path
   d="m 395.157,387.016 c -13.562,0 -24.597,11.034 -24.597,24.597 0,13.562 11.035,24.596 24.597,24.596 13.562,0 24.597,-11.034 24.597,-24.596 0,-13.563 -11.035,-24.597 -24.597,-24.597 z"
   id="path176" />
		<path
   d="m 417.116,291.281 c -2.032,-0.783 -4.205,-1.23 -6.47,-1.401 -0.568,-0.043 -1.113,-0.171 -1.694,-0.171 -12.639,0 -22.926,10.288 -22.926,22.925 0,12.637 10.281,22.92 22.926,22.92 8.09,0 15.171,-4.235 19.253,-10.575 1.199,-1.867 2.075,-3.93 2.699,-6.114 0.569,-1.995 0.967,-4.058 0.967,-6.23 0.006,-9.757 -6.144,-18.055 -14.755,-21.354 z"
   id="path178" />
		<path
   d="m 429.258,229.848 c 1.407,1.53 3.097,2.754 4.976,3.636 3.207,1.499 6.892,2.013 10.508,1.04 0.508,-0.146 2.234,-1.102 3.623,-1.873 3.771,-2.081 8.936,-4.939 14.395,-6.408 6.757,-1.817 15.924,-2.014 19.554,-2.014 l 0.562,0.006 c 3.838,-1.145 7.038,-3.666 9.039,-7.148 0.062,-0.11 0.092,-0.227 0.153,-0.337 1.004,-1.836 1.604,-3.819 1.812,-5.845 0.189,-1.86 0.073,-3.757 -0.429,-5.612 -1.836,-6.812 -7.962,-11.383 -15.251,-11.383 -1.303,0 -2.613,0.147 -3.904,0.453 l -0.796,0.184 c -17.014,3.984 -17.014,3.984 -35.562,9.578 l -1.193,0.361 c -8.36,2.259 -13.274,10.808 -11.047,19.083 0.647,2.418 1.932,4.517 3.56,6.279 z"
   id="path180" />
		<path
   d="m 565.134,277.915 c -3.966,-16.928 -3.966,-16.928 -9.602,-35.594 l -0.307,-1.022 c -2.215,-8.201 -10.912,-13.268 -19.076,-11.053 -2.104,0.569 -3.983,1.555 -5.587,2.828 -1.641,1.304 -2.969,2.919 -3.96,4.725 -1.86,3.396 -2.491,7.479 -1.407,11.505 0.146,0.508 1.102,2.228 1.866,3.617 2.081,3.77 4.938,8.935 6.407,14.394 1.995,7.405 2.032,17.785 2.014,20.123 0.704,2.375 2.032,4.431 3.685,6.144 1.523,1.579 3.348,2.821 5.367,3.666 3.06,1.273 6.506,1.665 9.884,0.759 8.134,-2.19 12.938,-10.599 10.937,-19.149 z"
   id="path182" />
	</g>
</g></g><g
         style="fill:#000000"
         id="g269"
         transform="matrix(0.13453645,0.05907022,-0.05907022,0.13453645,27.200718,9.5894715)"><g
           id="g245">
	<g
   id="g243">
		<path
   d="m 114.003,255.595 c -5.043,3.696 -10.324,8.09 -11.102,9.663 -1.353,2.705 -3.244,17.252 -2.889,22.24 0.073,1.053 0.306,4.26 13.972,4.266 l 0.042,3.06 v -3.06 c 13.666,-0.006 13.898,-3.213 13.972,-4.271 0.355,-4.976 -1.53,-19.523 -2.889,-22.234 -0.702,-1.408 -5.427,-5.497 -11.106,-9.664 z"
   id="path213" />
		<path
   d="m 290.559,264.842 c -17.057,0 -30.931,13.874 -30.931,30.931 0,17.056 13.874,30.93 30.931,30.93 17.057,0 30.931,-13.874 30.931,-30.93 0,-17.057 -13.874,-30.931 -30.931,-30.931 z m -7.938,42.559 c -0.012,0.214 -0.447,0.532 -0.722,0.581 -4.884,0.82 -9.633,0.294 -14.247,-1.493 -0.398,-0.153 -0.771,-0.392 -1.12,-0.637 -1.756,-1.242 -1.756,-2.895 0.043,-4.039 0.783,-0.502 1.609,-0.961 2.479,-1.279 4.431,-1.634 8.886,-3.219 13.568,-4.901 0,1.646 0.031,3.157 -0.037,4.669 -0.012,0.208 -0.49,0.466 -0.795,0.575 -2.454,0.9 -4.927,1.757 -7.381,2.662 -0.569,0.209 -1.089,0.563 -1.628,0.845 0.012,0.135 0.024,0.275 0.031,0.41 0.539,0.189 1.089,0.563 1.616,0.526 1.518,-0.104 3.047,-0.281 4.529,-0.612 1.199,-0.269 2.344,-0.802 3.696,-1.285 -0.001,1.432 0.035,2.711 -0.032,3.978 z m 9.977,-25.955 c -0.172,0.404 -0.123,0.912 -0.123,1.377 -0.006,9.498 0,18.996 0,28.501 0,0.452 0,0.899 0,1.523 -2.785,-0.888 -5.374,-1.695 -7.95,-2.546 -0.202,-0.067 -0.385,-0.386 -0.447,-0.624 -0.08,-0.3 -0.03,-0.643 -0.03,-0.961 0.012,-11.218 0.024,-22.441 0.037,-33.66 0,-0.392 0,-0.783 0,-1.321 0.765,0.152 1.432,0.232 2.068,0.416 3.642,1.064 7.283,2.13 10.9,3.262 0.948,0.294 1.842,0.796 2.717,1.279 2.858,1.585 4.511,4.015 4.921,7.265 0.281,2.252 0.386,4.492 -0.343,6.701 -1.23,3.727 -4.67,4.779 -8.28,3.06 -0.281,-0.135 -0.465,-0.752 -0.465,-1.145 -0.031,-3.8 0.012,-7.601 -0.043,-11.401 -0.013,-0.753 -0.221,-1.579 -0.594,-2.222 -0.227,-0.385 -0.979,-0.691 -1.438,-0.63 -0.368,0.043 -0.741,0.673 -0.93,1.126 z m 21.793,18.855 c 1.952,1.292 2.044,2.864 0.079,4.131 -1.218,0.79 -2.595,1.365 -3.965,1.867 -5.239,1.928 -10.509,3.794 -15.766,5.679 -0.227,0.08 -0.471,0.129 -0.881,0.239 0,-1.555 -0.043,-2.95 0.036,-4.339 0.019,-0.288 0.466,-0.674 0.796,-0.796 3.801,-1.39 7.613,-2.735 11.426,-4.095 0.508,-0.177 1.028,-0.336 1.493,-0.593 0.282,-0.153 0.466,-0.484 0.698,-0.729 -0.264,-0.202 -0.502,-0.515 -0.796,-0.588 -1.683,-0.422 -3.348,-0.214 -4.963,0.349 -2.467,0.857 -4.927,1.738 -7.394,2.607 -0.361,0.129 -0.729,0.238 -1.279,0.41 0,-1.671 -0.024,-3.194 0.031,-4.719 0.006,-0.202 0.379,-0.495 0.637,-0.575 6.45,-2.032 12.833,-1.971 19.106,0.723 0.252,0.118 0.503,0.27 0.742,0.429 z"
   id="path215" />
		<path
   d="m 200.111,290.032 c -18.954,0 -34.37,15.423 -34.37,34.37 0,18.947 15.416,34.364 34.37,34.364 18.954,0 34.37,-15.417 34.37,-34.364 0,-18.947 -15.416,-34.37 -34.37,-34.37 z"
   id="path217" />
		<rect
   x="227.994"
   y="238.771"
   width="18.898001"
   height="7.711"
   id="rect219" />
		<circle
   cx="465.82401"
   cy="194.52901"
   r="19.865999"
   id="circle221" />
		<path
   d="m 114.003,232.84 c 5.686,-4.167 10.404,-8.256 11.108,-9.669 1.353,-2.699 3.244,-17.246 2.889,-22.24 -0.08,-1.053 -0.306,-4.254 -13.972,-4.26 -13.708,0.006 -13.935,3.207 -14.015,4.26 -0.355,4.987 1.53,19.535 2.889,22.24 0.783,1.573 6.058,5.979 11.101,9.669 z"
   id="path223" />
		<path
   d="m 92.962,233.11 c -2.46,-1.229 -14.584,-2.925 -20.918,-2.925 -0.502,0 -0.937,0.012 -1.31,0.042 -1.059,0.074 -4.266,0.301 -4.271,13.966 0.006,13.709 3.213,13.936 4.266,14.009 0.379,0.031 0.82,0.043 1.316,0.043 6.34,0 18.464,-1.688 20.918,-2.925 1.671,-0.839 6.353,-6.573 9.676,-11.102 -3.703,-5.037 -8.11,-10.325 -9.677,-11.108 z"
   id="path225" />
		<path
   d="m 157.284,230.234 c -0.379,-0.031 -0.82,-0.043 -1.316,-0.043 -6.34,0 -18.464,1.689 -20.924,2.925 -1.566,0.784 -5.973,6.065 -9.669,11.108 3.317,4.528 7.999,10.27 9.669,11.102 2.46,1.23 14.584,2.925 20.918,2.925 0.496,0 0.936,-0.012 1.31,-0.042 1.059,-0.074 4.266,-0.3 4.271,-13.966 0,-0.05 0,-0.092 0,-0.129 -0.018,-13.586 -3.207,-13.813 -4.259,-13.88 z"
   id="path227" />
		<circle
   cx="512.44598"
   cy="241.15199"
   r="19.865"
   id="circle229" />
		<circle
   cx="465.82401"
   cy="287.77399"
   r="19.865"
   id="circle231" />
		<circle
   cx="419.202"
   cy="241.15199"
   r="19.865"
   id="circle233" />
		<polygon
   points="349.171,241.751 333.062,237.381 333.062,246.586 "
   id="polygon235" />
		<path
   d="m 381.362,290.032 c -18.954,0 -34.37,15.423 -34.37,34.37 0,18.947 15.416,34.364 34.37,34.364 18.953,0 34.369,-15.417 34.369,-34.364 0,-18.947 -15.416,-34.37 -34.369,-34.37 z"
   id="path237" />
		<path
   d="m 561.234,241.611 c -2.441,-18.305 -10.171,-52.075 -43.531,-75.264 l -8.14,-31.328 c 0,0 -0.813,-7.729 -10.985,-13.428 0,0 0.612,-5.288 -8.745,-7.729 -9.357,-2.442 -31.127,-7.117 -56.549,1.426 0,0 -3.868,1.016 -3.66,6.714 0,0 -12.001,5.899 -14.443,16.885 -2.441,10.985 -5.697,24.816 -5.697,24.816 h -36.916 -161.373 -39.56 c 0,0 -3.256,-13.831 -5.698,-24.816 -2.442,-10.985 -14.443,-16.885 -14.443,-16.885 0.202,-5.698 -3.66,-6.714 -3.66,-6.714 -25.429,-8.543 -47.191,-3.868 -56.549,-1.426 -9.357,2.441 -8.746,7.729 -8.746,7.729 -10.171,5.698 -10.985,13.428 -10.985,13.428 l -8.14,31.328 c -33.36,23.188 -41.09,56.959 -43.532,75.264 -2.441,18.31 -18.303,138.733 -19.528,152.969 -1.218,14.241 -2.032,67.534 46.788,75.264 48.82,7.73 74.45,-36.615 74.45,-36.615 l 32.956,-57.161 c 73.636,57.161 108.624,-20.545 108.624,-20.545 h 54.774 c 0,0 34.988,77.706 108.624,20.545 l 32.956,57.161 c 0,0 25.631,44.345 74.45,36.615 48.819,-7.73 48.005,-61.028 46.787,-75.264 -1.217,-14.242 -17.086,-134.664 -19.529,-152.969 z m -95.41,-73.067 c 14.326,0 25.985,11.658 25.985,25.985 0,14.326 -11.659,25.985 -25.985,25.985 -14.327,0 -25.985,-11.659 -25.985,-25.985 0,-14.326 11.658,-25.985 25.985,-25.985 z m -148.502,22.631 c 3.776,0 7.552,0 11.322,0 0.036,0.129 0.049,1.983 0.012,2.265 -0.062,0.006 -0.128,0.013 -0.195,0.013 -0.386,0 -0.777,0 -1.163,0 -0.043,0 -0.086,0 -0.129,0.006 -0.152,0.024 -0.238,0.122 -0.208,0.275 0.024,0.116 0.073,0.245 0.141,0.343 0.116,0.171 0.251,0.324 0.392,0.478 1.114,1.218 2.222,2.43 3.336,3.642 0.03,0.03 0.061,0.055 0.104,0.092 0.049,-0.056 0.099,-0.104 0.147,-0.153 1.261,-1.377 2.515,-2.754 3.775,-4.131 0.031,-0.031 0.062,-0.067 0.08,-0.104 0.086,-0.128 0.062,-0.251 -0.056,-0.349 -0.098,-0.079 -0.208,-0.098 -0.336,-0.098 -0.392,0.006 -0.79,0 -1.182,0 -0.055,0 -0.11,-0.013 -0.177,-0.019 0,-0.759 0,-1.506 0,-2.265 3.06,0 6.113,0 9.18,0 0,0.753 0,1.5 0,2.271 -0.067,0 -0.135,0 -0.202,0 -0.746,0 -1.493,0 -2.233,0 -0.123,0 -0.208,0.037 -0.294,0.123 -2.411,2.57 -4.822,5.141 -7.234,7.711 -0.079,0.086 -0.109,0.165 -0.109,0.281 0.006,0.991 0,1.977 0,2.969 0,0.042 0,0.085 0.006,0.128 0.019,0.196 0.116,0.312 0.318,0.337 0.085,0.012 0.171,0 0.263,0 0.839,0 1.677,0 2.516,0 0.024,0 0.049,0.006 0.086,0.012 0,0.68 0,1.353 0,2.032 -3.709,0 -7.405,0 -11.114,0 0,-0.68 0,-1.353 0,-2.05 0.073,0 0.141,0 0.208,0 0.716,0 1.426,0 2.142,0 0.074,0 0.153,0 0.227,-0.007 0.232,-0.024 0.355,-0.159 0.374,-0.397 0,-0.037 0,-0.073 0,-0.11 0,-1.034 0,-2.068 0,-3.103 0,-0.122 -0.031,-0.208 -0.117,-0.3 -2.282,-2.503 -4.571,-5.007 -6.848,-7.51 -0.086,-0.098 -0.178,-0.135 -0.306,-0.135 -0.833,0.007 -1.665,0 -2.497,0 -0.067,0 -0.135,0 -0.215,0 -0.014,-0.741 -0.014,-1.487 -0.014,-2.247 z m -27.43,-0.006 c 0.079,-0.006 0.159,-0.006 0.238,-0.006 2.51,0 5.025,0 7.535,0 0.109,0 0.227,0.006 0.336,0 0.135,-0.013 0.232,0.03 0.337,0.122 0.691,0.631 1.383,1.255 2.074,1.879 2.84,2.559 5.674,5.116 8.514,7.675 0.055,0.049 0.11,0.098 0.202,0.178 0,-0.11 0.006,-0.184 0.006,-0.251 0,-2.032 0,-4.058 0,-6.09 0,-0.159 0,-0.312 0,-0.471 0.006,-0.258 -0.11,-0.441 -0.324,-0.575 -0.196,-0.123 -0.41,-0.178 -0.643,-0.178 -0.704,0 -1.402,0 -2.105,0 -0.067,0 -0.135,0 -0.215,0 0,-0.766 0,-1.506 0,-2.252 0,0 0.007,-0.007 0.013,-0.013 0.006,-0.006 0.013,-0.013 0.013,-0.013 3.139,-0.006 6.272,-0.006 9.412,-0.012 0.037,0 0.073,0.006 0.122,0.006 0,0.753 0,1.506 0,2.276 -0.073,0 -0.141,0 -0.208,0 -0.679,0 -1.353,0 -2.031,-0.006 -0.569,0 -0.82,0.239 -0.845,0.814 -0.007,0.085 -0.007,0.177 -0.007,0.263 0,4.113 0,8.231 0,12.344 0,0.08 0,0.159 0,0.251 -0.073,0.007 -0.122,0.013 -0.177,0.013 -1.065,0 -2.13,0 -3.195,0 -0.109,0 -0.189,-0.03 -0.269,-0.104 -4.07,-3.623 -8.14,-7.239 -12.21,-10.862 -0.049,-0.043 -0.104,-0.086 -0.184,-0.153 0,0.098 0,0.159 0,0.221 0,2.723 0,5.446 0,8.17 0,0.104 0.013,0.214 0.024,0.318 0.019,0.116 0.092,0.189 0.215,0.208 0.135,0.019 0.275,0.024 0.41,0.024 0.765,0 1.529,0 2.295,0 0.067,0 0.135,0 0.214,0 0,0.729 0,1.438 0,2.16 -3.17,0 -6.328,0 -9.504,0 0,-0.716 0,-1.426 0,-2.16 0.073,0 0.141,0 0.208,0 0.697,0 1.389,0 2.087,0 0.079,0 0.165,0 0.244,-0.013 0.245,-0.036 0.386,-0.195 0.398,-0.446 0,-0.049 0,-0.098 0,-0.153 0,-3.47 0,-6.939 0,-10.41 0,-0.049 0,-0.098 0,-0.152 -0.007,-0.294 -0.116,-0.429 -0.398,-0.478 -0.135,-0.024 -0.275,-0.037 -0.41,-0.037 -0.648,-0.006 -1.303,0 -1.953,0 -0.067,0 -0.135,0 -0.227,0 0.008,-0.691 0.008,-1.377 0.008,-2.087 z m -25.82,3.942 c 0.661,-1.077 1.523,-1.965 2.54,-2.711 1.383,-1.016 2.925,-1.701 4.584,-2.143 1.646,-0.44 3.323,-0.6 5.024,-0.52 2.093,0.098 4.101,0.551 5.998,1.456 1.322,0.631 2.515,1.451 3.513,2.534 0.888,0.961 1.549,2.044 1.879,3.316 0.453,1.708 0.251,3.354 -0.544,4.921 -0.661,1.298 -1.628,2.338 -2.791,3.201 -1.414,1.046 -2.993,1.744 -4.682,2.185 -0.979,0.257 -1.971,0.416 -2.98,0.483 -0.392,0.024 -0.79,0.006 -1.181,0.006 0,0.006 0,0.013 0,0.019 -0.508,-0.019 -1.016,-0.006 -1.518,-0.055 -2.644,-0.239 -5.098,-1.022 -7.265,-2.589 -1.138,-0.82 -2.081,-1.818 -2.76,-3.061 -0.605,-1.107 -0.912,-2.289 -0.875,-3.55 0.029,-1.252 0.403,-2.415 1.058,-3.492 z m -24.064,-2.546 c 0.557,-0.562 1.206,-0.991 1.909,-1.353 1.041,-0.532 2.136,-0.881 3.274,-1.126 1.175,-0.251 2.356,-0.392 3.562,-0.38 0.937,0.013 1.861,0.123 2.779,0.3 1.322,0.258 2.613,0.637 3.862,1.151 0.25,0.104 0.489,0.244 0.747,0.354 0.085,0.037 0.189,0.062 0.288,0.056 0.189,-0.013 0.245,-0.08 0.245,-0.275 0,-0.19 0,-0.386 0,-0.576 0.153,-0.042 2.148,-0.049 2.369,-0.012 0,1.836 0,3.672 0,5.521 -0.765,0 -1.518,0 -2.289,0 -0.012,-0.086 -0.018,-0.159 -0.031,-0.239 -0.092,-0.667 -0.404,-1.218 -0.881,-1.683 -0.459,-0.44 -0.998,-0.753 -1.579,-0.998 -0.79,-0.343 -1.622,-0.557 -2.466,-0.703 -1.2,-0.215 -2.412,-0.3 -3.629,-0.264 -0.899,0.031 -1.799,0.104 -2.681,0.324 -0.361,0.092 -0.709,0.208 -1.04,0.38 -0.239,0.122 -0.465,0.275 -0.643,0.478 -0.208,0.232 -0.325,0.502 -0.343,0.813 -0.012,0.264 0.08,0.49 0.281,0.643 0.166,0.129 0.355,0.239 0.545,0.318 0.447,0.196 0.93,0.288 1.414,0.373 0.949,0.166 1.91,0.251 2.871,0.343 1.53,0.153 3.066,0.294 4.583,0.563 1.175,0.208 2.326,0.478 3.434,0.942 0.698,0.288 1.353,0.648 1.928,1.15 0.894,0.777 1.396,1.75 1.493,2.932 0.135,1.523 -0.392,2.772 -1.548,3.764 -0.71,0.606 -1.524,1.022 -2.393,1.353 -1.016,0.386 -2.068,0.631 -3.139,0.796 -0.906,0.135 -1.812,0.227 -2.729,0.227 -0.563,0 -1.126,-0.067 -1.683,-0.159 -1.818,-0.3 -3.605,-0.729 -5.367,-1.268 -0.233,-0.073 -0.459,-0.152 -0.673,-0.275 -0.208,-0.122 -0.453,-0.116 -0.71,-0.109 0,0.336 0,0.667 0,1.003 -0.912,0 -1.805,0 -2.699,0 -0.043,-0.128 -0.062,-5.905 -0.019,-6.261 0.135,-0.036 2.375,-0.042 2.564,-0.006 0.024,0.172 0.037,0.343 0.073,0.515 0.141,0.722 0.514,1.31 1.046,1.799 0.594,0.551 1.292,0.924 2.032,1.224 0.851,0.343 1.738,0.563 2.644,0.71 1.2,0.196 2.411,0.275 3.629,0.227 0.918,-0.036 1.817,-0.171 2.68,-0.52 0.478,-0.19 0.912,-0.441 1.285,-0.796 0.196,-0.184 0.368,-0.392 0.496,-0.631 0.061,-0.109 0.073,-0.22 0.049,-0.343 -0.061,-0.317 -0.232,-0.562 -0.478,-0.765 -0.238,-0.195 -0.514,-0.33 -0.802,-0.446 -0.575,-0.233 -1.181,-0.367 -1.793,-0.478 -1.022,-0.189 -2.056,-0.307 -3.084,-0.423 -1.475,-0.171 -2.95,-0.324 -4.406,-0.594 -1.175,-0.22 -2.338,-0.489 -3.439,-0.979 -0.667,-0.294 -1.292,-0.667 -1.806,-1.2 -0.648,-0.679 -0.967,-1.486 -0.979,-2.423 -0.02,-1.174 0.433,-2.148 1.247,-2.974 z m -146.097,7.937 c 0.704,-9.938 14.278,-9.944 20.067,-9.951 5.845,0.007 19.407,0.013 20.123,9.945 0.379,5.324 -1.414,21.224 -3.513,25.41 -1.775,3.55 -9.804,9.633 -14.578,13.036 -0.135,0.122 -0.281,0.226 -0.447,0.317 -0.483,0.282 -1.022,0.423 -1.554,0.423 -0.202,0 -0.404,-0.024 -0.6,-0.062 -0.238,-0.049 -0.471,-0.122 -0.691,-0.22 -0.263,-0.129 -0.502,-0.275 -0.716,-0.459 -3.207,-2.277 -12.663,-9.211 -14.572,-13.036 -2.105,-4.185 -3.905,-20.084 -3.519,-25.403 z m -23.623,63.814 c -9.938,-0.704 -9.945,-14.278 -9.945,-20.073 0,-5.839 0.006,-19.413 9.951,-20.117 0.496,-0.036 1.083,-0.055 1.75,-0.055 5.655,0 19.529,1.506 23.66,3.568 3.825,1.909 10.759,11.377 13.036,14.584 0.202,0.238 0.374,0.508 0.496,0.808 0.166,0.397 0.245,0.82 0.239,1.236 -0.006,0.452 -0.11,0.911 -0.318,1.334 -0.116,0.227 -0.257,0.44 -0.416,0.63 -1.805,2.559 -9.051,12.589 -13.036,14.578 -4.125,2.062 -18.005,3.568 -23.66,3.568 -0.668,-0.006 -1.261,-0.024 -1.757,-0.061 z m 63.813,23.611 c -0.71,9.944 -14.278,9.951 -20.067,9.957 v 0 h -0.024 c -5.82,-0.006 -19.388,-0.013 -20.092,-9.957 -0.379,-5.312 1.414,-21.212 3.513,-25.404 1.909,-3.819 11.377,-10.759 14.578,-13.036 0.135,-0.116 0.282,-0.22 0.441,-0.312 0.232,-0.135 0.477,-0.239 0.728,-0.312 0.795,-0.214 1.659,-0.128 2.393,0.294 0.196,0.116 0.379,0.251 0.539,0.397 4.798,3.428 12.723,9.443 14.48,12.963 2.091,4.204 3.89,20.098 3.511,25.41 z m 21.867,-23.556 c -5.649,0 -19.529,-1.505 -23.654,-3.567 -3.99,-1.989 -11.242,-12.044 -13.036,-14.584 -0.128,-0.147 -0.245,-0.318 -0.343,-0.496 -0.293,-0.532 -0.422,-1.132 -0.385,-1.72 0.024,-0.373 0.116,-0.74 0.281,-1.096 0.123,-0.257 0.275,-0.495 0.459,-0.71 2.295,-3.219 9.211,-12.649 13.023,-14.559 4.131,-2.062 18.005,-3.568 23.66,-3.568 0.661,0 1.254,0.019 1.756,0.055 9.872,0.704 9.945,14.101 9.945,19.958 0,0.049 0,0.092 0,0.135 -0.006,5.819 -0.012,19.394 -9.957,20.098 -0.494,0.036 -1.088,0.054 -1.749,0.054 z m 44.143,100.521 c -22.326,0 -40.49,-18.164 -40.49,-40.484 0,-22.325 18.164,-40.489 40.49,-40.489 22.326,0 40.49,18.164 40.49,40.489 0.006,22.32 -18.164,40.484 -40.49,40.484 z m 52.902,-117.18 c 0,2.692 -2.191,4.89 -4.89,4.89 h -21.358 c -2.699,0 -4.89,-2.19 -4.89,-4.89 V 237.54 c 0,-2.692 2.191,-4.89 4.89,-4.89 h 21.358 c 2.699,0 4.89,2.191 4.89,4.89 z m 37.546,82.044 c -18.74,0 -33.991,-15.244 -33.991,-33.99 0,-18.745 15.245,-33.99 33.991,-33.99 18.746,0 33.991,15.245 33.991,33.99 0,18.746 -15.245,33.99 -33.991,33.99 z m 42.149,-76.676 c -0.281,0.092 -0.582,0.129 -0.882,0.129 -2.692,0 -4.89,-2.191 -4.89,-4.891 v -12.613 c 0,-2.974 2.858,-5.569 5.691,-4.785 l 26.243,7.123 c 1.334,0.361 2.258,1.573 2.258,2.95 0,2.509 -1.903,4.584 -4.339,4.859 z m 48.654,111.812 c -22.326,0 -40.49,-18.164 -40.49,-40.484 0,-22.325 18.164,-40.489 40.49,-40.489 22.325,0 40.489,18.164 40.489,40.489 10e-4,22.32 -18.163,40.484 -40.489,40.484 z m 37.84,-97.755 c -14.327,0 -25.986,-11.658 -25.986,-25.985 0,-14.327 11.659,-25.985 25.986,-25.985 14.326,0 25.985,11.658 25.985,25.985 -0.005,14.327 -11.659,25.985 -25.985,25.985 z m 46.622,46.622 c -14.327,0 -25.985,-11.658 -25.985,-25.985 0,-14.327 11.658,-25.985 25.985,-25.985 14.326,0 25.985,11.658 25.985,25.985 -0.005,14.327 -11.659,25.985 -25.985,25.985 z m 46.622,-46.622 c -14.327,0 -25.985,-11.658 -25.985,-25.985 0,-14.327 11.658,-25.985 25.985,-25.985 14.327,0 25.985,11.658 25.985,25.985 -0.005,14.327 -11.659,25.985 -25.985,25.985 z"
   id="path239" />
		<path
   d="m 270.437,203.63 c 1.407,0.997 2.993,1.444 4.541,1.462 1.181,0 2.167,-0.171 3.103,-0.52 0.067,-0.024 0.116,-0.074 0.184,-0.099 0.012,-0.006 0.031,0 0.043,-0.006 1.334,-0.502 2.466,-1.279 3.292,-2.454 1.114,-1.579 1.377,-3.292 0.704,-5.116 -0.472,-1.279 -1.334,-2.265 -2.473,-2.986 -0.563,-0.355 -1.138,-0.631 -1.72,-0.839 -1.806,-0.703 -3.703,-0.74 -5.667,-0.11 -1.396,0.447 -2.577,1.236 -3.464,2.412 -1.193,1.585 -1.53,3.341 -0.888,5.232 0.435,1.268 1.261,2.253 2.345,3.024 z"
   id="path241" />
	</g>
</g></g><g
         style="fill:#000000"
         id="g282"
         transform="matrix(0.12377876,-0.04703,0.04703,0.12377876,71.127294,38.023595)"><g
           id="g273"
           transform="rotate(-45,279.69197,279.69088)">
	<path
   d="m 468.756,139.91 c 0.303,0.298 0.464,0.69 0.464,1.113 0,0.423 -0.161,0.815 -0.458,1.113 L 456.6,154.297 c -0.595,0.596 -1.619,0.596 -2.221,0 l -17.453,-17.453 -17.453,17.453 c -0.596,0.596 -1.62,0.596 -2.221,0 L 405.09,142.136 c -0.297,-0.298 -0.458,-0.69 -0.458,-1.113 0,-0.423 0.161,-0.815 0.458,-1.113 l 17.454,-17.453 -17.454,-17.454 c -0.613,-0.607 -0.613,-1.607 0,-2.22 l 12.156,-12.162 c 0.605,-0.596 1.637,-0.589 2.227,0 l 17.453,17.454 17.453,-17.454 c 0.596,-0.596 1.626,-0.596 2.221,0 l 12.156,12.162 c 0.612,0.606 0.612,1.606 0,2.22 l -17.454,17.454 z M 461.833,28.183 c -2.644,0 -5.131,1.029 -7,2.898 -1.869,1.869 -2.905,4.352 -2.905,7.007 0,2.643 1.03,5.125 2.898,7 3.738,3.744 10.27,3.744 14.008,0 1.869,-1.869 2.897,-4.352 2.897,-7 0,-2.649 -1.028,-5.132 -2.897,-7.007 -1.869,-1.875 -4.358,-2.898 -7.001,-2.898 z m -139.82,263.572 c -2.648,0 -5.131,1.029 -7.006,2.897 -1.869,1.869 -2.899,4.353 -2.899,7.002 0,2.647 1.03,5.131 2.899,7.006 3.738,3.738 10.263,3.745 14.007,0 3.857,-3.857 3.857,-10.145 0,-14.007 -1.869,-1.869 -4.358,-2.898 -7.001,-2.898 z m -153.306,84.309 c -3.899,0 -7.572,1.523 -10.328,4.28 -5.697,5.696 -5.697,14.971 0,20.662 5.518,5.512 15.144,5.512 20.662,0 5.695,-5.691 5.695,-14.966 0,-20.662 -2.764,-2.756 -6.431,-4.28 -10.334,-4.28 z m 90.087,-147.522 c -2.644,0 -5.131,1.029 -7,2.898 -1.869,1.869 -2.899,4.352 -2.899,7.001 0,2.648 1.03,5.131 2.899,7.006 3.744,3.745 10.269,3.745 14.007,0 1.869,-1.869 2.898,-4.352 2.898,-7.006 0,-2.644 -1.029,-5.126 -2.898,-7.001 -1.875,-1.874 -4.357,-2.898 -7.007,-2.898 z m 108.3,-58.005 c -5.852,0 -11.358,2.28 -15.495,6.418 -4.138,4.137 -6.417,9.637 -6.417,15.495 0,5.857 2.279,11.352 6.417,15.495 8.274,8.28 22.704,8.28 30.99,0 4.137,-4.138 6.417,-9.638 6.417,-15.495 0,-5.858 -2.28,-11.353 -6.417,-15.495 -4.137,-4.143 -9.65,-6.418 -15.495,-6.418 z m -77.225,89.073 c -2.645,0 -5.133,1.029 -7.001,2.898 -1.869,1.87 -2.898,4.352 -2.898,7.007 0,2.644 1.029,5.125 2.898,7.001 3.737,3.744 10.269,3.744 14.007,0 1.869,-1.869 2.898,-4.352 2.898,-7.001 0,-2.648 -1.029,-5.131 -2.898,-7.007 -1.87,-1.875 -4.364,-2.898 -7.006,-2.898 z m -203.588,191.603 -3.64,3.634 3.634,3.64 3.64,-3.634 z M 552.726,119.338 119.338,552.726 c -8.875,8.876 -23.27,8.876 -32.145,0 L 6.657,472.19 c -8.875,-8.876 -8.875,-23.27 0,-32.146 L 440.045,6.657 c 8.876,-8.876 23.27,-8.876 32.146,0 l 80.535,80.535 c 8.876,8.877 8.876,23.27 0,32.146 z M 234.311,306.856 c 2.571,2.572 6.561,-1.416 3.988,-3.987 -2.571,-2.572 -6.559,1.416 -3.988,3.987 z m -156.695,148.01 8.685,8.687 8.686,-8.687 -8.686,-8.685 z m 13.447,36.112 c -0.232,-0.697 -0.804,-1.405 -1.44,-1.78 -1.244,-0.731 -2.888,-0.397 -3.703,0.75 -0.667,0.94 -0.69,2.286 -0.054,3.25 0.417,0.625 1.244,1.186 2.006,1.353 1.369,0.298 2.816,-0.577 3.221,-1.946 0.113,-0.403 0.095,-1.223 -0.03,-1.627 z m -33.807,-56.469 8.686,8.686 8.686,-8.686 -8.686,-8.679 z m 9.532,63.117 c 0.714,-0.269 4.279,-2.238 14.811,-8.19 2.202,-1.244 4.042,-2.28 4.077,-2.298 0.054,-0.024 -0.327,-0.429 -1.81,-1.911 l -1.881,-1.875 -7.459,4.423 c -4.638,2.756 -7.436,4.388 -7.411,4.321 0.023,-0.053 1.137,-1.964 2.471,-4.238 3.958,-6.756 4.958,-8.506 5.214,-9.106 0.417,-0.982 0.375,-1.982 -0.112,-2.815 -0.232,-0.394 -0.965,-1.125 -1.363,-1.357 -0.757,-0.445 -1.697,-0.518 -2.596,-0.195 -0.667,0.237 -2.006,1 -10.233,5.814 l -3.464,2.03 4.417,-7.436 c 2.429,-4.09 4.417,-7.458 4.417,-7.494 0,-0.036 -0.834,-0.888 -1.857,-1.899 l -1.857,-1.839 -1.065,1.887 c -7.102,12.566 -9.066,16.091 -9.399,16.854 -0.494,1.137 -0.459,2.57 0.089,3.536 0.209,0.368 0.971,1.125 1.363,1.356 1.09,0.644 2.482,0.571 3.982,-0.209 0.696,-0.362 3.167,-1.75 7.924,-4.464 2.166,-1.238 3.923,-2.209 3.898,-2.161 -0.018,0.048 -0.869,1.536 -1.881,3.311 -4.31,7.535 -4.929,8.66 -5.203,9.459 -0.166,0.487 -0.202,0.708 -0.202,1.298 0,0.75 0.096,1.153 0.423,1.708 0.232,0.398 0.929,1.09 1.327,1.321 0.957,0.563 2.177,0.621 3.38,0.169 z m 8.042,11.132 5.667,-5.673 5.673,-5.667 -1.768,-1.769 -1.769,-1.769 -5.667,5.673 -5.673,5.668 1.768,1.768 z m 18.441,-4.244 -1.768,-1.769 -1.769,-1.769 -5.667,5.673 -5.673,5.668 1.769,1.769 1.768,1.768 5.673,-5.667 z m 4.882,-6.448 c -0.227,-0.689 -0.798,-1.404 -1.435,-1.772 -0.959,-0.565 -2.197,-0.507 -3.102,0.143 -1.185,0.846 -1.482,2.613 -0.655,3.857 0.417,0.625 1.244,1.185 2.006,1.352 1.382,0.304 2.852,-0.596 3.227,-1.971 0.119,-0.423 0.101,-1.187 -0.041,-1.609 z m 16.114,-23.913 -8.686,-8.685 -8.686,8.685 8.686,8.681 z m 19.287,19.288 -8.686,-8.685 -8.686,8.685 8.686,8.687 z m 8.983,-76.594 c -7.769,-7.77 -21.312,-7.77 -29.079,0 -8.013,8.013 -8.013,21.056 0,29.08 3.881,3.887 9.048,6.022 14.536,6.022 5.488,0 10.655,-2.143 14.537,-6.022 8.018,-8.025 8.018,-21.068 0.006,-29.08 z m 40.716,-40.717 c -7.77,-7.77 -21.311,-7.77 -29.079,0 -8.013,8.023 -8.013,21.065 0,29.079 3.881,3.888 9.048,6.023 14.537,6.023 5.487,0 10.654,-2.144 14.536,-6.023 8.013,-8.008 8.013,-21.056 0.006,-29.079 z m 15.978,-34.193 c -2.221,-2.226 -5.673,1.222 -3.445,3.447 2.225,2.225 5.667,-1.221 3.445,-3.447 z m 4.852,-4.852 c 2.57,2.572 6.561,-1.416 3.987,-3.988 -2.57,-2.572 -6.559,1.417 -3.987,3.988 z m 4.351,14.055 c -2.221,-2.227 -5.673,1.221 -3.446,3.447 2.225,2.22 5.667,-1.221 3.446,-3.447 z m 9.013,9.006 c -2.221,-2.227 -5.673,1.222 -3.446,3.446 2.219,2.227 5.667,-1.219 3.446,-3.446 z m 0.029,-18.048 c -2.839,-2.834 -7.231,1.565 -4.397,4.399 2.838,2.833 7.237,-1.566 4.397,-4.399 z m 0.978,-19.383 c -3.334,-3.327 -8.494,1.834 -5.167,5.167 3.326,3.334 8.501,-1.839 5.167,-5.167 z m 7.827,28.597 c -2.57,-2.57 -6.561,1.417 -3.987,3.988 2.57,2.572 6.558,-1.416 3.987,-3.988 z m 1.375,-19.394 c -3.334,-3.327 -8.501,1.834 -5.167,5.167 3.327,3.334 8.501,-1.839 5.167,-5.167 z m 1.44,-19.848 c -3.333,-3.326 -8.501,1.835 -5.167,5.167 3.334,3.329 8.501,-1.838 5.167,-5.167 z m 7.568,28.861 c -3.334,-3.327 -8.501,1.834 -5.167,5.167 3.333,3.328 8.5,-1.839 5.167,-5.167 z m 1.635,-19.657 c -3.334,-3.326 -8.501,1.834 -5.167,5.167 3.334,3.329 8.501,-1.838 5.167,-5.167 z m 9.013,9.007 c -3.334,-3.328 -8.501,1.833 -5.167,5.167 3.327,3.334 8.5,-1.84 5.167,-5.167 z m 0.394,-18.412 c -2.84,-2.834 -7.232,1.564 -4.399,4.398 2.838,2.835 7.237,-1.564 4.399,-4.398 z m -4.555,-13.846 c 2.222,2.227 5.674,-1.221 3.446,-3.446 -2.224,-2.227 -5.667,1.22 -3.446,3.446 z m 13.357,23.061 c -2.571,-2.571 -6.561,1.417 -3.988,3.988 2.572,2.573 6.566,-1.417 3.988,-3.988 z m -4.16,-13.864 c 2.22,2.228 5.673,-1.22 3.446,-3.446 -2.219,-2.221 -5.667,1.22 -3.446,3.446 z m 12.459,5.566 c -2.221,-2.228 -5.673,1.22 -3.447,3.445 2.222,2.228 5.667,-1.218 3.447,-3.445 z m 5.202,-63.13 c 2.995,-2.994 4.644,-6.977 4.644,-11.215 0,-4.232 -1.647,-8.215 -4.644,-11.209 -5.988,-5.989 -16.43,-5.989 -22.424,0 -2.994,2.994 -4.644,6.977 -4.644,11.209 0,4.238 1.648,8.221 4.644,11.215 2.995,2.994 6.977,4.645 11.209,4.645 4.24,-10e-4 8.221,-1.656 11.215,-4.645 z m 35.717,19.859 c 0,-4.238 -1.647,-8.221 -4.643,-11.215 -5.995,-6.001 -16.437,-6.001 -22.424,0 -2.994,2.994 -4.644,6.977 -4.644,11.215 0,4.232 1.648,8.215 4.644,11.208 2.994,2.994 6.977,4.645 11.209,4.645 4.231,0 8.215,-1.649 11.209,-4.645 3.001,-2.993 4.643,-6.976 4.649,-11.208 z m 27.496,20.93 c -6,-5.994 -16.436,-5.988 -22.424,0 -2.994,2.994 -4.645,6.978 -4.645,11.209 0,4.238 1.649,8.222 4.645,11.216 3,2.993 6.981,4.644 11.215,4.644 4.234,0 8.215,-1.648 11.209,-4.644 6.186,-6.185 6.186,-16.246 0,-22.425 z m 61.731,-97.995 c 0,-7.441 -2.894,-14.442 -8.161,-19.704 -5.269,-5.263 -12.264,-8.161 -19.703,-8.161 -7.441,0 -14.441,2.898 -19.704,8.161 -5.263,5.262 -8.161,12.263 -8.161,19.704 0,7.44 2.898,14.441 8.161,19.703 5.263,5.263 12.263,8.161 19.704,8.161 7.439,0 14.44,-2.898 19.703,-8.161 5.262,-5.261 8.161,-12.262 8.161,-19.703 z m 80.22,-51.432 c 0,-2.006 -0.78,-3.899 -2.203,-5.322 l -13.245,-13.244 13.239,-13.245 c 2.935,-2.929 2.935,-7.703 0,-10.638 L 460.803,86.407 c -2.84,-2.839 -7.793,-2.839 -10.638,0 L 436.92,99.652 423.675,86.407 c -2.84,-2.839 -7.792,-2.839 -10.638,0 l -12.161,12.162 c -2.936,2.935 -2.936,7.709 0,10.638 l 13.245,13.245 -13.245,13.244 c -1.423,1.429 -2.203,3.316 -2.203,5.322 0,2.012 0.78,3.905 2.203,5.322 l 12.155,12.161 c 2.846,2.852 7.805,2.852 10.644,0 l 13.245,-13.245 13.239,13.245 c 1.423,1.423 3.31,2.202 5.32,2.202 2.01,0 3.905,-0.779 5.322,-2.202 l 12.155,-12.161 c 1.425,-1.417 2.212,-3.311 2.217,-5.322 z m 2.517,-102.93 c 0,-4.238 -1.647,-8.221 -4.644,-11.215 -5.994,-6.001 -16.437,-6.001 -22.424,0 -2.994,2.994 -4.644,6.977 -4.644,11.215 0,4.232 1.648,8.215 4.644,11.209 2.995,2.994 6.977,4.644 11.209,4.644 4.231,0 8.215,-1.649 11.209,-4.644 2.995,-2.995 4.645,-6.976 4.65,-11.209 z m -375.754,436.065 3.639,3.636 3.631,-3.635 -3.639,-3.635 z m -32.35,-39.638 -3.638,-3.636 -3.632,3.635 3.639,3.635 z m 55.291,62.569 3.639,-3.636 -3.636,-3.639 -3.638,3.636 z m 3.117,-80.304 c -3.898,0 -7.571,1.524 -10.328,4.28 -5.696,5.69 -5.696,14.965 0,20.662 5.519,5.513 15.145,5.513 20.662,0 5.697,-5.697 5.697,-14.972 0,-20.662 -2.762,-2.761 -6.435,-4.28 -10.334,-4.28 z"
   id="path271" />
</g></g><g
         style="fill:#000000"
         id="g334"
         transform="matrix(-0.11973199,-0.07460703,0.07460703,-0.11973199,202.32931,41.758896)"><g
           id="g312">
	<g
   id="g310">
		<path
   d="m 403.926,173.572 c -9.73,0 -17.65,7.919 -17.65,17.656 0,9.73 7.92,17.649 17.65,17.649 9.737,0 17.656,-7.919 17.656,-17.649 0,-9.737 -7.919,-17.656 -17.656,-17.656 z"
   id="path284" />
		<path
   d="m 360.603,240.843 -29.492,11.86 -13.104,28.439 12.173,31.401 30.417,12.491 30.416,-12.491 12.173,-31.401 -13.104,-28.439 z m -0.521,76.824 c -19.198,0 -34.822,-15.625 -34.822,-34.817 0,-19.191 15.624,-34.816 34.822,-34.816 19.198,0 34.817,15.625 34.817,34.816 0,19.192 -15.619,34.817 -34.817,34.817 z"
   id="path286" />
		<path
   d="m 458.816,214.594 c -9.731,0 -17.65,7.919 -17.65,17.649 0,9.737 7.919,17.657 17.65,17.657 9.736,0 17.656,-7.92 17.656,-17.657 0.001,-9.73 -7.919,-17.649 -17.656,-17.649 z"
   id="path288" />
		<path
   d="m 125.417,146.931 -24.04,-0.392 -0.392,30.809 H 70.569 l -0.392,24.039 30.808,0.392 v 30.416 l 24.04,0.392 c 0.214,0 0.392,-0.177 0.392,-0.392 v -30.416 h 30.417 l 0.392,-24.039 -30.808,-0.392 v -30.417 z"
   id="path290" />
		<circle
   cx="458.81601"
   cy="150.20599"
   r="17.656"
   id="circle292" />
		<path
   d="m 360.082,254.148 c -15.826,0 -28.702,12.876 -28.702,28.696 0,15.82 12.876,28.697 28.702,28.697 15.826,0 28.697,-12.877 28.697,-28.697 0,-15.82 -12.871,-28.696 -28.697,-28.696 z"
   id="path294" />
		<path
   d="m 438.577,88.173 c 0,0 -43.972,-0.459 -69.865,2.307 -0.594,0.062 -1.206,0.129 -1.83,0.19 0,-0.024 0,-0.049 0,-0.073 -0.196,-2.896 -7.179,-4.78 -15.606,-4.217 -8.427,0.562 -15.098,3.365 -14.902,6.261 0,0.018 0.007,0.043 0.007,0.061 -23.581,1.12 -47.412,1.579 -47.412,1.579 0,0 -26.665,-0.514 -51.487,-1.78 -0.024,-2.847 -6.622,-5.569 -14.909,-6.12 -8.09,-0.539 -14.853,1.181 -15.551,3.88 C 180.92,87.745 139.359,88.18 139.359,88.18 62.393,88.179 0,150.573 0,227.538 c 0,76.966 62.393,135.564 139.358,135.564 0,0 42.595,-2.308 75.043,-4.725 22.436,-1.671 49.474,-2.516 64.04,-2.876 -4.492,17.943 -2.436,38.574 10.404,52.852 9.976,11.09 21.34,18.165 34.603,24.859 16.799,8.482 44.254,18.838 39.101,43.134 -3.262,15.398 20.33,21.946 23.604,6.506 4.597,-21.683 -3.678,-38.984 -20.098,-53.263 -25.166,-21.885 -77.675,-26.891 -62.645,-72.613 0.153,-0.472 0.202,-0.912 0.306,-1.365 15.172,0.41 39.407,1.249 59.829,2.767 32.448,2.417 75.044,4.725 75.044,4.725 76.965,0 139.358,-58.599 139.358,-135.564 10e-4,-76.966 -62.405,-139.366 -139.37,-139.366 z m -120.704,34.658 c 0.973,-0.257 2.228,-0.122 3.114,0.331 0.533,0.269 1.292,0.991 1.592,1.518 0.973,1.695 0.416,3.99 -1.212,5.036 -0.899,0.575 -2.246,0.839 -3.256,0.631 -2.008,-0.404 -3.428,-2.405 -3.103,-4.37 0.245,-1.506 1.389,-2.761 2.865,-3.146 z m 4.626,11.309 v 10.992 10.991 h -3.421 -3.421 V 145.132 134.14 h 3.421 z m 6.628,42.381 c 7.999,0 14.505,6.506 14.505,14.511 0,7.999 -6.506,14.505 -14.505,14.505 -7.998,0 -14.504,-6.506 -14.504,-14.505 0,-7.999 6.506,-14.511 14.504,-14.511 z m -197.59,31.378 v 24.296 c 0,3.593 -2.919,6.512 -6.512,6.512 h -23.648 c -3.592,0 -6.512,-2.925 -6.512,-6.512 V 207.899 H 70.569 c -3.592,0 -6.511,-2.926 -6.511,-6.512 v -23.642 c 0,-3.593 2.919,-6.512 6.511,-6.512 h 24.296 v -24.297 c 0,-3.592 2.919,-6.512 6.512,-6.512 h 23.648 c 3.592,0 6.512,2.926 6.512,6.512 v 24.297 h 24.296 c 3.592,0 6.512,2.925 6.512,6.512 v 23.642 c 0,3.592 -2.919,6.512 -6.512,6.512 z m 126.103,74.248 -13.122,33.831 c -0.306,0.783 -0.912,1.401 -1.689,1.726 l -32.797,13.465 c -0.374,0.146 -0.765,0.226 -1.163,0.226 -0.397,0 -0.79,-0.079 -1.163,-0.226 l -32.797,-13.465 c -0.777,-0.324 -1.389,-0.942 -1.689,-1.726 l -13.121,-33.831 c -0.3,-0.771 -0.27,-1.634 0.073,-2.387 l 14.149,-30.729 c 0.325,-0.71 0.912,-1.268 1.64,-1.561 l 31.763,-12.773 c 0.735,-0.3 1.549,-0.3 2.283,0 l 31.756,12.773 c 0.729,0.293 1.31,0.851 1.64,1.561 l 14.156,30.729 c 0.356,0.759 0.38,1.615 0.081,2.387 z m -12.975,-76.605 c -7.999,0 -14.51,-6.506 -14.51,-14.504 0,-8.006 6.505,-14.511 14.51,-14.511 8.005,0 14.504,6.505 14.504,14.511 0,7.993 -6.505,14.504 -14.504,14.504 z m 22.148,-49.308 c -0.606,0.159 -2.075,0.159 -2.638,0.006 -1.463,-0.404 -2.889,-1.757 -3.513,-3.342 -0.417,-1.059 -1.928,-6.383 -7.228,-25.44 l -0.795,-2.858 3.586,-0.019 c 1.971,-0.012 3.611,0.007 3.642,0.043 0.031,0.037 1.371,5.227 2.98,11.543 l 2.925,11.48 1.389,-5.324 c 3.305,-12.638 3.862,-14.676 4.278,-15.551 0.563,-1.182 1.542,-2.025 2.711,-2.325 0.612,-0.159 2.032,-0.159 2.638,0 1.285,0.336 2.289,1.261 2.84,2.619 0.336,0.826 1.065,3.5 3.77,13.886 0.912,3.501 1.683,6.427 1.72,6.5 0.037,0.086 1.169,-4.205 2.999,-11.371 l 2.938,-11.512 h 3.642 c 2.876,0 3.635,0.019 3.604,0.098 -0.019,0.056 -0.796,2.834 -1.72,6.182 -4.437,15.979 -5.979,21.34 -6.413,22.289 -0.741,1.609 -1.983,2.723 -3.458,3.108 -0.618,0.159 -1.958,0.159 -2.564,0 -0.851,-0.22 -1.34,-0.514 -2.069,-1.242 -0.569,-0.569 -0.752,-0.82 -1.065,-1.45 -0.508,-1.034 -0.998,-2.729 -4.125,-14.211 -0.734,-2.699 -1.359,-4.963 -1.383,-5.03 -0.024,-0.067 -0.783,2.576 -1.683,5.869 -1.983,7.239 -3.029,10.979 -3.354,12.001 -0.697,2.202 -1.97,3.616 -3.654,4.051 z m 19.536,49.308 c -7.999,0 -14.511,-6.506 -14.511,-14.504 0,-8.006 6.506,-14.511 14.511,-14.511 8.005,0 14.504,6.505 14.504,14.511 0,7.993 -6.505,14.504 -14.504,14.504 z m 22.38,-60.41 v 10.991 h -3.421 -3.421 V 145.132 134.14 h 3.421 3.421 z m -1.132,-15.417 c -0.899,0.575 -2.245,0.839 -3.256,0.631 -1.548,-0.312 -2.833,-1.641 -3.097,-3.201 -0.317,-1.903 0.949,-3.812 2.858,-4.314 0.973,-0.257 2.228,-0.122 3.115,0.331 0.532,0.269 1.347,1.046 1.615,1.548 0.944,1.719 0.387,3.965 -1.235,5.005 z m 101.769,152.432 -13.121,33.831 c -0.306,0.783 -0.912,1.401 -1.688,1.726 l -32.798,13.465 c -0.373,0.146 -0.765,0.226 -1.162,0.226 -0.398,0 -0.79,-0.079 -1.163,-0.226 l -32.797,-13.465 c -0.777,-0.324 -1.39,-0.942 -1.689,-1.726 l -13.121,-33.831 c -0.3,-0.771 -0.27,-1.634 0.073,-2.387 l 14.149,-30.729 c 0.324,-0.71 0.912,-1.268 1.641,-1.561 l 31.763,-12.773 c 0.734,-0.3 1.548,-0.3 2.282,0 l 31.757,12.773 c 0.729,0.293 1.31,0.851 1.641,1.561 l 14.155,30.729 c 0.354,0.759 0.379,1.615 0.078,2.387 z m -5.44,-67.149 c -13.108,0 -23.77,-10.661 -23.77,-23.77 0,-13.109 10.667,-23.776 23.77,-23.776 13.109,0 23.776,10.667 23.776,23.776 0,13.108 -10.667,23.77 -23.776,23.77 z m 54.89,41.022 c -13.109,0 -23.771,-10.667 -23.771,-23.776 0,-13.108 10.667,-23.77 23.771,-23.77 13.108,0 23.776,10.661 23.776,23.77 0.001,13.109 -10.667,23.776 -23.776,23.776 z m 0,-82.045 c -13.109,0 -23.771,-10.667 -23.771,-23.775 0,-13.109 10.667,-23.776 23.771,-23.776 13.108,0 23.776,10.667 23.776,23.776 0.001,13.108 -10.667,23.775 -23.776,23.775 z m 55.233,41.023 c -13.108,0 -23.77,-10.661 -23.77,-23.77 0,-13.109 10.667,-23.776 23.77,-23.776 13.109,0 23.776,10.667 23.776,23.776 0,13.108 -10.661,23.77 -23.776,23.77 z"
   id="path296" />
		<path
   d="m 514.049,173.572 c -9.73,0 -17.649,7.919 -17.649,17.656 0,9.73 7.919,17.649 17.649,17.649 9.737,0 17.656,-7.919 17.656,-17.649 0,-9.737 -7.919,-17.656 -17.656,-17.656 z"
   id="path298" />
		<path
   d="m 208.875,240.843 -29.492,11.86 -13.103,28.439 12.173,31.401 30.416,12.491 30.417,-12.491 12.173,-31.401 -13.103,-28.439 z m -0.52,76.824 c -19.198,0 -34.816,-15.625 -34.816,-34.817 0,-19.191 15.618,-34.816 34.816,-34.816 19.199,0 34.823,15.625 34.823,34.816 0,19.192 -15.624,34.817 -34.823,34.817 z"
   id="path300" />
		<circle
   cx="329.12701"
   cy="191.032"
   r="8.3909998"
   id="circle302" />
		<path
   d="m 208.355,254.148 c -15.826,0 -28.696,12.876 -28.696,28.696 0,15.82 12.876,28.697 28.696,28.697 15.82,0 28.703,-12.877 28.703,-28.697 0,-15.82 -12.876,-28.696 -28.703,-28.696 z"
   id="path304" />
		<circle
   cx="244.66499"
   cy="191.032"
   r="8.3909998"
   id="circle306" />
		<circle
   cx="286.349"
   cy="191.032"
   r="8.3909998"
   id="circle308" />
	</g>
</g></g><g
         style="fill:#000000"
         id="g392"
         transform="matrix(0.10281103,0.08713751,-0.08713751,0.10281103,170.8553,14.03052)"><g
           id="g368">
	<g
   id="g366"
   transform="translate(-39.149256,-143.85062)">
		<circle
   cx="291.78799"
   cy="362.314"
   r="10.637"
   id="circle336" />
		<circle
   cx="340.61899"
   cy="292.49701"
   r="8.868"
   id="circle338" />
		<path
   d="m 220.649,353.447 h -28.691 v -28.691 c 0,-0.746 -0.612,-1.358 -1.365,-1.358 h -15.024 c -0.747,0 -1.359,0.612 -1.359,1.358 v 28.691 h -28.69 c -0.747,0 -1.358,0.611 -1.358,1.358 v 15.024 c 0,0.747 0.612,1.358 1.358,1.358 h 28.69 v 28.69 c 0,0.747 0.612,1.359 1.359,1.359 h 15.024 c 0.753,0 1.365,-0.612 1.365,-1.359 v -28.696 h 28.691 c 0.747,0 1.358,-0.612 1.358,-1.358 v -15.024 c 0,-0.741 -0.611,-1.352 -1.358,-1.352 z"
   id="path340" />
		<circle
   cx="291.78799"
   cy="292.49799"
   r="10.637"
   id="circle342" />
		<circle
   cx="242.95599"
   cy="292.49701"
   r="8.868"
   id="circle344" />
		<path
   d="m 508.969,179.822 c -0.44,-11.928 -15.024,-16.346 -15.024,-16.346 -6.628,-5.747 -22.094,-13.256 -22.094,-13.256 -2.649,-2.87 -3.091,-9.945 -3.091,-9.945 -16.126,-16.573 -34.247,0 -34.247,0 v 10.386 c 0,0 -2.65,0 -43.306,17.234 -40.648,17.228 -99.419,16.347 -99.419,16.347 0,0 -58.771,0.881 -99.419,-16.347 -40.655,-17.234 -43.305,-17.234 -43.305,-17.234 v -10.386 c 0,0 -18.115,-16.573 -34.248,0 0,0 -0.44,7.069 -3.09,9.945 0,0 -15.465,7.51 -22.093,13.256 0,0 -14.584,4.418 -15.025,16.346 0,0 -60.312,67.608 -73.568,270.865 -13.256,203.258 104.285,64.511 129.909,42.418 25.631,-22.094 52.143,-48.605 160.84,-48.605 108.698,0 135.209,26.512 160.84,48.605 25.631,22.093 143.165,160.84 129.909,-42.418 C 569.281,247.43 508.969,179.822 508.969,179.822 Z M 401.373,306.231 c 11.188,0 20.287,9.1 20.287,20.287 0,11.193 -9.1,20.294 -20.287,20.294 -11.193,0 -20.294,-9.101 -20.294,-20.294 0,-11.187 9.101,-20.287 20.294,-20.287 z m -70.325,-97.357 c 0.104,-0.257 0.422,-0.612 0.648,-0.618 2.754,-0.043 5.515,-0.024 8.274,-0.024 0.606,0 0.618,0.404 0.618,0.838 0,2.13 0,4.26 0,6.389 h -0.012 c 0,2.05 0.061,4.101 -0.019,6.145 -0.08,2.038 -0.888,3.715 -2.846,4.615 -2.748,1.249 -6.065,-0.471 -6.536,-3.452 -0.208,-1.31 -0.196,-2.662 -0.208,-3.997 -0.024,-2.95 -0.013,-5.894 -0.007,-8.843 -0.004,-0.356 -0.041,-0.741 0.088,-1.053 z m -27.724,-0.741 c 2.424,-0.025 4.419,1.824 4.425,4.112 0.006,2.332 -1.897,4.137 -4.363,4.156 -2.399,0.012 -4.333,-1.812 -4.352,-4.082 -0.013,-2.246 1.946,-4.161 4.29,-4.186 z m 3.782,36.334 c 0.006,0.734 -0.202,1.016 -0.973,0.998 -1.8,-0.049 -3.605,-0.037 -5.41,0 -0.686,0.012 -0.985,-0.177 -0.979,-0.918 0.019,-7.515 0.012,-15.031 0,-22.54 0,-0.637 0.227,-0.875 0.863,-0.869 1.885,0.024 3.77,0.03 5.654,0 0.661,-0.012 0.845,0.257 0.845,0.875 -0.019,3.77 -0.006,7.54 -0.006,11.31 -0.012,3.715 -0.024,7.429 0.006,11.144 z M 287.92,208.121 c 2.344,0.019 4.351,1.94 4.351,4.149 0,2.277 -2.007,4.144 -4.437,4.125 -2.448,-0.019 -4.345,-1.867 -4.309,-4.21 0.037,-2.247 2.02,-4.082 4.395,-4.064 z m 3.678,13.96 c -0.024,7.485 -0.018,14.963 0,22.448 0,0.734 -0.263,0.942 -0.96,0.93 -1.83,-0.037 -3.66,-0.037 -5.49,0 -0.722,0.012 -0.949,-0.251 -0.942,-0.955 0.024,-3.739 0.012,-7.485 0.012,-11.224 0,-3.66 0,-7.32 0,-10.979 0,-1.163 0.006,-1.163 1.199,-1.163 1.72,-0.006 3.439,0.018 5.159,-0.019 0.716,-0.012 1.028,0.178 1.022,0.962 z m 0.19,53.66 c 9.242,0 16.757,7.521 16.757,16.757 0,9.234 -7.516,16.756 -16.757,16.756 -9.241,0 -16.756,-7.521 -16.756,-16.756 -10e-4,-9.236 7.514,-16.757 16.756,-16.757 z m -173.655,31.744 c -20.208,0 -36.641,-16.438 -36.641,-36.64 0,-20.202 16.438,-36.634 36.641,-36.634 20.202,0 36.64,16.438 36.64,36.634 0,20.208 -16.432,36.64 -36.64,36.64 z m 109.994,62.345 c 0,4.125 -3.354,7.479 -7.479,7.479 h -22.571 v 22.57 c 0,4.125 -3.36,7.479 -7.485,7.479 h -15.024 c -4.125,0 -7.479,-3.354 -7.479,-7.479 V 377.303 H 145.52 c -4.125,0 -7.479,-3.354 -7.479,-7.479 V 354.8 c 0,-4.125 3.354,-7.479 7.479,-7.479 h 22.571 v -22.57 c 0,-4.125 3.354,-7.479 7.479,-7.479 h 15.024 c 4.125,0 7.485,3.354 7.485,7.479 v 22.57 h 22.571 c 4.125,0 7.479,3.354 7.479,7.479 v 15.03 z m -0.159,-77.332 c 0,-8.269 6.726,-14.988 14.988,-14.988 8.262,0 14.994,6.726 14.994,14.988 0,8.262 -6.732,14.987 -14.994,14.987 -8.262,0 -14.988,-6.72 -14.988,-14.987 z m 31.769,134.431 c 0,1.163 -0.943,2.1 -2.099,2.1 h -5.606 c -1.157,0 -2.099,-0.943 -2.099,-2.1 v -5.6 c 0,-1.163 0.942,-2.1 2.099,-2.1 h 5.606 c 1.156,0 2.099,0.942 2.099,2.1 z m 9.523,-182.682 c -2.344,2.271 -6.267,1.928 -7.968,-0.863 -0.74,-1.212 -1.224,-2.619 -1.616,-4.002 -1.628,-5.759 -3.182,-11.536 -4.761,-17.301 -0.11,-0.404 -0.257,-0.795 -0.392,-1.193 -0.092,-0.006 -0.184,-0.012 -0.275,-0.024 -0.123,0.293 -0.275,0.581 -0.361,0.887 -1.732,6.267 -3.439,12.54 -5.189,18.801 -0.257,0.912 -0.618,1.83 -1.114,2.625 -2.026,3.244 -6.402,3.458 -8.697,0.385 -0.686,-0.918 -1.187,-2.044 -1.505,-3.151 -2.748,-9.639 -5.441,-19.303 -8.14,-28.954 -0.349,-1.254 -0.331,-1.261 1.01,-1.261 1.83,0 3.666,0.019 5.49,-0.018 0.667,-0.012 0.967,0.227 1.132,0.881 1.989,7.895 4.002,15.783 6.01,23.672 0.104,0.41 0.239,0.814 0.361,1.224 0.092,0.019 0.184,0.037 0.275,0.049 0.128,-0.281 0.288,-0.557 0.367,-0.851 1.854,-6.995 3.697,-13.997 5.551,-20.998 0.447,-1.702 1.212,-3.244 2.987,-3.85 2.687,-0.912 5.453,-0.202 6.457,2.742 0.899,2.632 1.555,5.349 2.264,8.042 1.249,4.7 2.455,9.412 3.69,14.112 0.074,0.275 0.214,0.526 0.533,0.802 0.128,-0.306 0.3,-0.594 0.379,-0.912 2.02,-7.913 4.033,-15.833 6.041,-23.752 0.288,-1.15 0.281,-1.15 1.475,-1.15 1.885,0 3.77,0.012 5.655,-0.012 0.661,-0.006 0.875,0.171 0.673,0.869 -1.15,4.076 -2.252,8.164 -3.396,12.24 -1.604,5.704 -3.225,11.408 -4.841,17.112 -0.406,1.456 -0.994,2.784 -2.095,3.849 z m 14.645,182.682 c 0,1.163 -0.936,2.1 -2.099,2.1 H 276.2 c -1.157,0 -2.099,-0.943 -2.099,-2.1 v -5.6 c 0,-1.163 0.942,-2.1 2.099,-2.1 h 5.605 c 1.163,0 2.099,0.942 2.099,2.1 v 5.6 z m -8.874,-64.615 c 0,-9.241 7.521,-16.756 16.756,-16.756 9.236,0 16.757,7.521 16.757,16.756 0,9.235 -7.516,16.763 -16.757,16.763 -9.241,0 -16.756,-7.522 -16.756,-16.763 z m 34.444,64.615 c 0,1.163 -0.942,2.1 -2.099,2.1 h -5.606 c -1.162,0 -2.099,-0.943 -2.099,-2.1 v -5.6 c 0,-1.163 0.937,-2.1 2.099,-2.1 h 5.606 c 1.156,0 2.099,0.942 2.099,2.1 z m 7.65,-196.354 c -0.086,-1.389 -0.043,-2.779 -0.049,-4.174 -0.019,-4.425 -0.007,-8.85 -0.056,-13.274 -0.03,-3.005 1.72,-4.859 4.707,-4.89 1.064,-0.012 2.136,0.037 3.194,-0.019 0.802,-0.037 1.034,0.288 1.034,1.053 -0.024,4.21 -0.03,8.415 0,12.625 0.012,2.179 0.594,4.205 1.897,5.992 1.462,2.007 3.537,2.956 5.899,3.335 2.692,0.435 5.324,0.153 7.687,-1.273 2.693,-1.628 3.966,-4.223 4.076,-7.271 0.146,-4.37 0.086,-8.739 0.11,-13.115 0.006,-1.334 0.006,-1.353 1.364,-1.334 1.365,0.024 2.742,-0.031 4.082,0.171 2.038,0.312 3.428,1.964 3.439,4.002 0.031,5.93 0.056,11.861 -0.006,17.791 -0.037,3.427 -2.454,5.814 -5.985,5.887 -4.26,0.086 -8.525,0.019 -12.791,0.019 0,0.012 0,0.024 0,0.031 -3.745,0 -7.49,0.012 -11.23,-0.013 -0.924,-0.006 -1.872,-0.03 -2.766,-0.214 -2.758,-0.561 -4.435,-2.514 -4.606,-5.329 z m 16.518,196.354 c 0,1.163 -0.942,2.1 -2.099,2.1 h -5.606 c -1.156,0 -2.099,-0.943 -2.099,-2.1 v -5.6 c 0,-1.163 0.942,-2.1 2.099,-2.1 h 5.606 c 1.156,0 2.099,0.942 2.099,2.1 z m -8.024,-134.431 c 0,-8.269 6.732,-14.988 14.994,-14.988 8.262,0 14.988,6.726 14.988,14.988 0,8.262 -6.727,14.987 -14.988,14.987 -8.261,0 -14.994,-6.72 -14.994,-14.987 z m 38.415,91.659 c -11.187,0 -20.287,-9.101 -20.287,-20.288 0,-11.193 9.101,-20.294 20.287,-20.294 11.194,0 20.295,9.101 20.295,20.294 0,11.181 -9.1,20.288 -20.295,20.288 z m 37.339,37.332 c -11.193,0 -20.294,-9.101 -20.294,-20.288 0,-11.193 9.101,-20.294 20.294,-20.294 11.188,0 20.287,9.101 20.287,20.294 0.007,11.187 -9.099,20.288 -20.287,20.288 z m 37.338,-37.332 c -11.188,0 -20.288,-9.101 -20.288,-20.288 0,-11.193 9.101,-20.294 20.288,-20.294 11.187,0 20.288,9.101 20.288,20.294 0,11.181 -9.101,20.288 -20.288,20.288 z m 27.173,-76.672 c -20.208,0 -36.641,-16.438 -36.641,-36.64 0,-20.202 16.438,-36.634 36.641,-36.634 20.203,0 36.641,16.438 36.641,36.634 0.005,20.208 -16.433,36.64 -36.641,36.64 z"
   id="path346" />
		<path
   d="m 465.884,240.331 c -16.83,0 -30.521,13.69 -30.521,30.514 0,16.83 13.69,30.52 30.521,30.52 16.831,0 30.521,-13.69 30.521,-30.52 0.005,-16.824 -13.691,-30.514 -30.521,-30.514 z"
   id="path348" />
		<circle
   cx="438.711"
   cy="363.86301"
   r="14.174"
   id="circle350" />
		<circle
   cx="364.034"
   cy="363.86301"
   r="14.174"
   id="circle352" />
		<path
   d="m 401.373,387.021 c -7.815,0 -14.174,6.358 -14.174,14.174 0,7.809 6.358,14.168 14.174,14.168 7.809,0 14.168,-6.359 14.168,-14.168 0.006,-7.816 -6.353,-14.174 -14.168,-14.174 z"
   id="path354" />
		<path
   d="m 118.133,240.331 c -16.83,0 -30.521,13.69 -30.521,30.514 0,16.83 13.69,30.52 30.521,30.52 16.83,0 30.52,-13.69 30.52,-30.52 0,-16.824 -13.691,-30.514 -30.52,-30.514 z"
   id="path356" />
		<circle
   cx="401.37299"
   cy="326.52399"
   r="14.174"
   id="circle358" />
		
		
		
	</g>
</g></g><g
         id="g3656"
         transform="matrix(0.22451695,0,0,0.22451695,54.707055,-31.23006)"
         style="fill:#ff0000">
	<path
   class="st0"
   d="m 496.872,423.839 -85.357,-85.358 c -4.76,7.322 -9.901,14.378 -15.392,21.142 l -31.484,-31.485 c 1.357,-1.771 2.7,-3.556 4.014,-5.371 0.885,-1.225 1.756,-2.45 2.596,-3.689 0.148,-0.192 0.28,-0.398 0.414,-0.59 0.855,-1.254 1.711,-2.523 2.538,-3.792 1.8,-2.744 3.526,-5.518 5.179,-8.351 17.691,-30.174 27.857,-65.291 27.857,-102.725 0,-37.434 -10.166,-72.55 -27.857,-102.724 C 361.688,70.751 336.487,45.55 306.343,27.858 276.168,10.166 241.052,0 203.618,0 c -37.433,0 -72.55,10.166 -102.724,27.858 -1.239,0.723 -2.464,1.461 -3.689,2.228 -1.564,0.959 -3.128,1.948 -4.663,2.951 -2.729,1.785 -5.429,3.63 -8.07,5.548 -0.886,0.634 -1.756,1.284 -2.627,1.933 -0.914,0.694 -1.829,1.387 -2.744,2.081 -0.841,0.664 -1.697,1.328 -2.538,2.006 -1.653,1.328 -3.29,2.671 -4.899,4.058 C 63.402,55.7 55.7,63.402 48.662,71.665 c -1.387,1.608 -2.73,3.232 -4.058,4.899 -0.678,0.841 -1.343,1.697 -2.006,2.538 -0.694,0.915 -1.387,1.83 -2.08,2.744 -0.649,0.87 -1.298,1.741 -1.933,2.626 -1.918,2.641 -3.762,5.341 -5.548,8.071 -1.004,1.535 -1.992,3.099 -2.951,4.663 -0.767,1.224 -1.505,2.449 -2.228,3.689 C 10.166,131.069 0,166.186 0,203.62 c 0,37.434 10.166,72.55 27.857,102.725 17.692,30.144 42.893,55.346 73.037,73.037 30.174,17.692 65.291,27.858 102.724,27.858 37.434,0 72.55,-10.166 102.724,-27.858 1.888,-1.106 3.748,-2.243 5.592,-3.408 0.929,-0.575 1.844,-1.166 2.759,-1.77 1.269,-0.826 2.538,-1.682 3.792,-2.538 0.192,-0.133 0.398,-0.266 0.59,-0.413 1.239,-0.841 2.464,-1.712 3.689,-2.597 1.815,-1.313 3.6,-2.656 5.371,-4.013 l 31.483,31.483 c -6.764,5.49 -13.82,10.632 -21.14,15.393 l 85.358,85.358 c 10.077,10.077 23.298,15.123 36.518,15.123 13.22,0 26.441,-5.046 36.518,-15.124 20.17,-20.17 20.17,-52.867 0,-73.037 z M 284.682,323.283 c -0.413,0.295 -0.826,0.575 -1.254,0.841 -0.472,0.34 -0.959,0.649 -1.446,0.959 -0.442,0.295 -0.886,0.575 -1.328,0.856 -0.576,0.369 -1.15,0.723 -1.726,1.062 -0.546,0.34 -1.077,0.664 -1.623,0.989 -1.166,0.694 -2.332,1.357 -3.512,2.021 -0.089,0.059 -0.177,0.104 -0.28,0.162 -0.96,0.531 -1.933,1.048 -2.907,1.549 -0.384,0.222 -0.768,0.428 -1.166,0.62 -0.767,0.398 -1.549,0.782 -2.33,1.166 -1.491,0.738 -2.996,1.446 -4.516,2.124 -18.016,8.086 -37.979,12.586 -58.975,12.586 -20.996,0 -40.959,-4.5 -58.975,-12.586 C 112.241,321.113 86.126,294.997 71.607,262.595 63.52,244.58 59.02,224.616 59.02,203.62 c 0,-20.996 4.5,-40.96 12.586,-58.976 2.272,-5.061 4.824,-9.974 7.643,-14.711 0.325,-0.546 0.649,-1.077 0.988,-1.623 0.915,-1.52 1.874,-3.025 2.878,-4.5 0.546,-0.841 1.106,-1.667 1.696,-2.494 0.694,-1.033 1.416,-2.051 2.17,-3.054 1.135,-1.549 2.301,-3.084 3.496,-4.589 6.832,-8.572 14.622,-16.363 23.195,-23.195 1.505,-1.195 3.04,-2.361 4.589,-3.497 1.004,-0.753 2.022,-1.476 3.054,-2.169 0.827,-0.59 1.653,-1.151 2.494,-1.697 1.476,-1.003 2.981,-1.962 4.5,-2.877 0.546,-0.34 1.077,-0.664 1.623,-0.989 4.736,-2.818 9.65,-5.371 14.711,-7.643 18.016,-8.086 37.979,-12.586 58.975,-12.586 20.996,0 40.96,4.5 58.975,12.586 32.402,14.519 58.518,40.635 73.037,73.037 8.086,18.016 12.586,37.98 12.586,58.976 0,20.996 -4.5,40.96 -12.586,58.976 -0.679,1.52 -1.386,3.025 -2.124,4.515 -0.384,0.782 -0.768,1.564 -1.166,2.332 -0.192,0.398 -0.399,0.782 -0.62,1.166 -0.502,0.974 -1.018,1.948 -1.549,2.907 -0.059,0.103 -0.103,0.192 -0.162,0.28 -0.65,1.18 -1.328,2.346 -2.022,3.512 -0.325,0.546 -0.649,1.077 -0.988,1.623 -0.339,0.576 -0.694,1.151 -1.063,1.726 -0.28,0.443 -0.56,0.886 -0.856,1.328 -0.31,0.487 -0.62,0.974 -0.959,1.446 -0.265,0.428 -0.546,0.841 -0.841,1.254 -0.28,0.413 -0.561,0.826 -0.856,1.239 -0.148,0.251 -0.325,0.502 -0.516,0.738 -0.324,0.487 -0.679,0.989 -1.033,1.476 -2.685,3.733 -5.548,7.319 -8.587,10.756 -0.545,0.635 -1.106,1.254 -1.667,1.874 -0.723,0.797 -1.446,1.594 -2.184,2.361 -0.856,0.9 -1.741,1.8 -2.627,2.686 -0.884,0.885 -1.785,1.77 -2.685,2.626 -0.767,0.738 -1.564,1.46 -2.361,2.184 -0.62,0.561 -1.239,1.121 -1.874,1.667 -3.437,3.04 -7.023,5.902 -10.756,8.588 -0.487,0.354 -0.989,0.708 -1.476,1.033 -0.236,0.192 -0.487,0.369 -0.738,0.516 -0.412,0.294 -0.826,0.575 -1.238,0.855 z"
   id="path3654"
   style="fill:#ff0000" />
</g><rect
         style="opacity:0.8;fill:#00187b;fill-opacity:1;stroke:none;stroke-width:0.701144;stroke-linecap:square"
         id="rect912"
         width="224.36667"
         height="126.20625"
         x="4.7657241e-07"
         y="-36.85685" /></g><text
       xml:space="preserve"
       style="font-size:21.3853px;line-height:125%;font-family:'Noto Color Emoji';-inkscape-font-specification:'Noto Color Emoji';letter-spacing:0px;word-spacing:0px;fill:#faff3e;fill-opacity:1;stroke:none;stroke-width:0.0453992;stroke-linecap:butt;stroke-linejoin:miter;stroke-dasharray:none;stroke-opacity:1"
       x="112.02293"
       y="21.873453"
       id="text968"><tspan
         sodipodi:role="line"
         style="font-style:normal;font-variant:normal;font-weight:bold;font-stretch:normal;font-family:'Josefin Sans';-inkscape-font-specification:'Josefin Sans Bold';text-align:center;text-anchor:middle;fill:#faff3e;fill-opacity:1;stroke:none;stroke-width:0.0453992;stroke-dasharray:none;stroke-opacity:1"
         x="112.02293"
         y="21.873453"
         id="tspan974">SDL2 Game</tspan><tspan
         sodipodi:role="line"
         style="font-style:normal;font-variant:normal;font-weight:bold;font-stretch:normal;font-family:'Josefin Sans';-inkscape-font-specification:'Josefin Sans Bold';text-align:center;text-anchor:middle;fill:#faff3e;fill-opacity:1;stroke:none;stroke-width:0.0453992;stroke-dasharray:none;stroke-opacity:1"
         x="112.02293"
         y="48.813919"
         id="tspan970">Controller Test</tspan></text></g><style
     type="text/css"
     id="style3652">
	.st0{fill:#000000;}
</style></svg>
